<svg width="71" height="71" viewBox="0 0 71 71" fill="none" xmlns="http://www.w3.org/2000/svg">
<circle opacity="0.1" cx="35.5" cy="35.5" r="35.5" fill="#FFA300"/>
<g clip-path="url(#clip0_1580_11)">
<path d="M40.9 41.0375L43.9375 35.75C44.7538 34.3568 45.1841 32.7711 45.1841 31.1563C45.1841 29.5415 44.7538 27.9558 43.9375 26.5625C43.1302 25.169 41.9708 24.0121 40.5755 23.2078C39.1802 22.4036 37.598 21.9802 35.9875 21.9802C34.377 21.9802 32.7948 22.4036 31.3995 23.2078C30.0042 24.0121 28.8448 25.169 28.0375 26.5625C27.2212 27.9558 26.7909 29.5415 26.7909 31.1563C26.7909 32.7711 27.2212 34.3568 28.0375 35.75L31.075 41.0125C26 41.6375 21 43.25 21 46.375C21 50.2375 28.775 52 36 52C43.225 52 51 50.2375 51 46.375C51 43.25 46 41.6375 40.9 41.0375ZM30.2125 27.8375C30.636 27.052 31.2128 26.3594 31.9087 25.8006C32.6046 25.2419 33.4054 24.8283 34.2639 24.5845C35.1224 24.3406 36.021 24.2714 36.9067 24.3809C37.7924 24.4903 38.6472 24.7763 39.4205 25.2219C40.1937 25.6674 40.8698 26.2635 41.4087 26.9749C41.9475 27.6863 42.3383 28.4985 42.5578 29.3636C42.7773 30.2286 42.8211 31.1288 42.6867 32.0111C42.5522 32.8933 42.2422 33.7397 41.775 34.5L36 44.5L30.225 34.5C29.6359 33.4892 29.3245 32.3405 29.3223 31.1705C29.3201 30.0005 29.6272 28.8506 30.2125 27.8375ZM36 49.5C27.75 49.5 23.5 47.3125 23.5 46.375C23.5 45.7125 26.1875 43.9375 32.475 43.4L34.1625 46.3125C34.3494 46.6343 34.6175 46.9013 34.9399 47.0869C35.2624 47.2725 35.6279 47.3702 36 47.3702C36.3721 47.3702 36.7376 47.2725 37.0601 47.0869C37.3825 46.9013 37.6506 46.6343 37.8375 46.3125L39.525 43.4C45.8125 43.9375 48.5 45.75 48.5 46.375C48.5 47.3125 44.25 49.5 36 49.5Z" fill="#FFC200"/>
<path d="M36 33.25C37.3807 33.25 38.5 32.1307 38.5 30.75C38.5 29.3693 37.3807 28.25 36 28.25C34.6193 28.25 33.5 29.3693 33.5 30.75C33.5 32.1307 34.6193 33.25 36 33.25Z" fill="#FFC200"/>
</g>
<defs>
<clipPath id="clip0_1580_11">
<rect width="30" height="30" fill="white" transform="translate(21 22)"/>
</clipPath>
</defs>
</svg>
