<svg width="20" height="14" viewBox="0 0 20 14" fill="none" xmlns="http://www.w3.org/2000/svg">
<path fill-rule="evenodd" clip-rule="evenodd" d="M19 6.89146C19 6.7438 18.9381 6.60278 18.8352 6.4966L13.267 0.96685C13.0471 0.748404 12.691 0.748957 12.4716 0.96685C12.2517 1.18474 12.2517 1.53868 12.4716 1.75658L17.0802 6.3329H1.5625C1.252 6.3329 1 6.58287 1 6.89146C1 7.20005 1.252 7.45002 1.5625 7.45002H17.0796L12.4716 12.0263C12.2517 12.2442 12.2522 12.5982 12.4716 12.8161C12.6916 13.034 13.0476 13.034 13.267 12.8161L18.8352 7.28632C18.9404 7.1818 18.9983 7.03801 19 6.89146Z" fill="#2F4858" stroke="#2F4858" stroke-width="0.6"/>
</svg>
