<svg width="81" height="80" viewBox="0 0 81 80" fill="none" xmlns="http://www.w3.org/2000/svg">
<circle opacity="0.1" cx="40.3125" cy="40" r="40" fill="#2F4858"/>
<path d="M57.4 50.35L50.1125 43.0625C51.075 41.1375 51.625 39.075 51.625 36.875C51.625 29.3125 45.4375 23.125 37.875 23.125C30.3125 23.125 24.125 29.3125 24.125 36.875C24.125 44.4375 30.3125 50.625 37.875 50.625C40.075 50.625 42.1375 50.075 44.0625 49.1125L51.35 56.4C52.175 57.225 53.275 57.6375 54.375 57.6375C55.475 57.6375 56.575 57.225 57.4 56.4C59.05 54.75 59.05 52 57.4 50.35ZM33.75 42.375C33.75 43.2 33.2 43.75 32.375 43.75C31.55 43.75 31 43.2 31 42.375V35.5C31 34.675 31.55 34.125 32.375 34.125C33.2 34.125 33.75 34.675 33.75 35.5V42.375ZM39.25 42.375C39.25 43.2 38.7 43.75 37.875 43.75C37.05 43.75 36.5 43.2 36.5 42.375V30C36.5 29.175 37.05 28.625 37.875 28.625C38.7 28.625 39.25 29.175 39.25 30V42.375ZM44.75 42.375C44.75 43.2 44.2 43.75 43.375 43.75C42.55 43.75 42 43.2 42 42.375V32.75C42 31.925 42.55 31.375 43.375 31.375C44.2 31.375 44.75 31.925 44.75 32.75V42.375Z" fill="black"/>
</svg>
