<svg width="64" height="80" viewBox="0 0 64 80" fill="none" xmlns="http://www.w3.org/2000/svg">
<circle opacity="0.1" cx="40" cy="40" r="40" fill="#2F4858"/>
<g opacity="0.3">
<path d="M55.0877 35.3937C54.8377 32.8476 53.9473 30.4062 52.4993 28.2969C51.0515 26.1877 49.0932 24.4793 46.807 23.3309C44.5208 22.1825 41.9812 21.6316 39.4247 21.7293C36.8682 21.8271 34.378 22.5704 32.1862 23.8901C29.9945 25.2097 28.1724 27.0627 26.8898 29.2763C25.6072 31.49 24.9059 33.9923 24.8511 36.5501C24.7964 39.1078 25.39 41.6379 26.5766 43.9044C27.7633 46.171 29.5043 48.1002 31.6377 49.5125C32.4307 50.0328 33.0818 50.7423 33.5324 51.577C33.983 52.4116 34.2189 53.3452 34.2189 54.2937C34.2189 55.3513 34.639 56.3655 35.3868 57.1133C36.1346 57.8611 37.1488 58.2812 38.2064 58.2812H41.7939C42.8515 58.2812 43.8657 57.8611 44.6135 57.1133C45.3613 56.3655 45.7814 55.3513 45.7814 54.2937C45.777 53.352 46.0072 52.424 46.4513 51.5937C46.8955 50.7633 47.5395 50.0566 48.3252 49.5375C50.6335 48.0193 52.4835 45.8995 53.6753 43.407C54.867 40.9143 55.3554 38.1436 55.0877 35.3937ZM48.7502 38.0312C48.4189 38.0312 48.2564 38.1875 47.8939 38.625C47.6777 38.9779 47.3745 39.2695 47.0134 39.4717C46.6523 39.674 46.2453 39.7802 45.8314 39.7802C45.4175 39.7802 45.0105 39.674 44.6494 39.4717C44.2883 39.2695 43.9851 38.9779 43.7689 38.625C43.4064 38.1875 43.2439 38.0312 42.9127 38.0312C42.5814 38.0312 42.4189 38.1875 42.0502 38.625C41.7345 39.0725 41.3022 39.4248 40.8002 39.6437V54.5312H44.2127C44.1553 55.1286 43.8778 55.6833 43.4343 56.0876C42.9908 56.4918 42.4128 56.7168 41.8127 56.7187H38.2064C37.6063 56.7168 37.0283 56.4918 36.5847 56.0876C36.1412 55.6833 35.8638 55.1286 35.8064 54.5312H39.2189V39.65C38.705 39.4337 38.2614 39.0788 37.9377 38.625C37.5689 38.1875 37.4127 38.0312 37.0814 38.0312C36.7502 38.0312 36.5877 38.1875 36.2252 38.625C36.0003 38.9699 35.6952 39.2552 35.336 39.4566C34.9768 39.658 34.5742 39.7693 34.1627 39.7812C33.7521 39.7683 33.3508 39.6565 32.9928 39.4552C32.6348 39.2538 32.3307 38.969 32.1064 38.625C31.7439 38.1875 31.5814 38.0312 31.2502 38.0312C31.043 38.0312 30.8442 37.9489 30.6977 37.8024C30.5512 37.6558 30.4689 37.4572 30.4689 37.25C30.4689 37.0428 30.5512 36.844 30.6977 36.6975C30.8442 36.551 31.043 36.4687 31.2502 36.4687C31.6607 36.4816 32.062 36.5935 32.42 36.7948C32.778 36.9961 33.0821 37.2809 33.3064 37.625C33.6752 38.0625 33.8314 38.2187 34.1627 38.2187C34.4939 38.2187 34.6564 38.0625 35.0252 37.625C35.2398 37.2718 35.5417 36.98 35.9018 36.7774C36.262 36.5748 36.6682 36.4685 37.0814 36.4685C37.4946 36.4685 37.9008 36.5748 38.261 36.7774C38.6211 36.98 38.923 37.2718 39.1377 37.625C39.5064 38.0625 39.6627 38.2187 39.9939 38.2187C40.3252 38.2187 40.4877 38.0625 40.8502 37.625C41.0655 37.2719 41.3681 36.9802 41.7287 36.7778C42.0893 36.5754 42.496 36.4691 42.9095 36.4691C43.3231 36.4691 43.7297 36.5754 44.0903 36.7778C44.451 36.9802 44.7535 37.2719 44.9689 37.625C45.3377 38.0625 45.4939 38.2187 45.8314 38.2187C46.1689 38.2187 46.3252 38.0625 46.6939 37.625C46.9181 37.2809 47.2223 36.9961 47.5803 36.7948C47.9383 36.5935 48.3396 36.4816 48.7502 36.4687C48.9573 36.4687 49.156 36.551 49.3026 36.6975C49.4491 36.844 49.5314 37.0428 49.5314 37.25C49.5314 37.4572 49.4491 37.6558 49.3026 37.8024C49.156 37.9489 48.9573 38.0312 48.7502 38.0312Z" fill="black"/>
</g>
</svg>
