<svg width="80" height="80" viewBox="0 0 80 80" fill="none" xmlns="http://www.w3.org/2000/svg">
<circle opacity="0.1" cx="40" cy="40" r="40" fill="#2F4858"/>
<g opacity="0.3">
<path d="M36.5144 42.5758L38.5168 45.2461L37.0147 58.2359H22.6528C22.6528 58.2359 22.7541 52.6115 23.3257 49.2771C23.42 48.7263 23.6428 48.2054 23.9759 47.7567C24.309 47.308 24.7431 46.9441 25.243 46.6944C28.5774 45.0322 35.8941 42.5758 35.8941 42.5758H36.5144Z" fill="#2D3E50"/>
<path d="M57.3474 58.2359H43.3607L41.4834 45.2473L43.4858 42.5758H44.1049C44.1049 42.5758 51.4228 45.0322 54.7572 46.6944C55.257 46.9443 55.6909 47.3083 56.024 47.7569C56.3571 48.2056 56.5799 48.7264 56.6745 49.2771C57.2461 52.6115 57.3474 58.2359 57.3474 58.2359Z" fill="#2D3E50"/>
<path d="M39.9998 40.1863C38.4681 40.1863 36.9842 39.6535 35.8024 38.6792C34.6206 37.705 33.8145 36.3499 33.5223 34.8464L32.513 29.6527C32.3794 28.6696 32.4578 27.6694 32.7429 26.7191C33.0279 25.7689 33.513 24.8906 34.1656 24.1434C34.8182 23.3961 35.6231 22.7972 36.5263 22.3868C37.4296 21.9765 38.4102 21.7642 39.4022 21.7642H40.5973C41.5894 21.7642 42.57 21.9765 43.4732 22.3868C44.3765 22.7972 45.1814 23.3961 45.834 24.1434C46.4866 24.8906 46.9717 25.7689 47.2567 26.7191C47.5418 27.6694 47.6201 28.6696 47.4866 29.6527L46.4773 34.8464C46.1851 36.3499 45.379 37.705 44.1972 38.6792C43.0154 39.6535 41.5314 40.1863 39.9998 40.1863Z" fill="#2D3E50"/>
</g>
</svg>
