<svg width="214" height="30" viewBox="0 0 214 30" fill="none" xmlns="http://www.w3.org/2000/svg">
<g clip-path="url(#clip0_1478_2298)">
<path d="M156.896 10.4054C156.616 9.77042 156.228 9.21737 155.733 8.76675C155.237 8.29564 154.656 7.92694 154.01 7.66066C153.342 7.39438 152.653 7.251 151.899 7.251C151.145 7.251 150.456 7.39438 149.789 7.66066C149.121 7.92694 148.54 8.29564 148.066 8.76675C147.57 9.23786 147.183 9.7909 146.903 10.4054C146.623 11.0404 146.472 11.6958 146.472 12.4127V17.5745H157.327V12.4127C157.327 11.7163 157.176 11.0404 156.896 10.4054ZM183.321 10.4054C183.041 9.77042 182.654 9.21737 182.158 8.76675C181.663 8.29564 181.103 7.92694 180.436 7.66066C179.768 7.39438 179.079 7.251 178.325 7.251H172.898V17.5949H178.325C179.079 17.5949 179.768 17.4516 180.436 17.1853C181.103 16.919 181.663 16.5503 182.158 16.0792C182.654 15.6081 183.041 15.055 183.321 14.4406C183.601 13.8056 183.752 13.1501 183.752 12.4332C183.752 11.7163 183.601 11.0404 183.321 10.4054ZM183.321 10.4054C183.041 9.77042 182.654 9.21737 182.158 8.76675C181.663 8.29564 181.103 7.92694 180.436 7.66066C179.768 7.39438 179.079 7.251 178.325 7.251H172.898V17.5949H178.325C179.079 17.5949 179.768 17.4516 180.436 17.1853C181.103 16.919 181.663 16.5503 182.158 16.0792C182.654 15.6081 183.041 15.055 183.321 14.4406C183.601 13.8056 183.752 13.1501 183.752 12.4332C183.752 11.7163 183.601 11.0404 183.321 10.4054ZM156.896 10.4054C156.616 9.77042 156.228 9.21737 155.733 8.76675C155.237 8.29564 154.656 7.92694 154.01 7.66066C153.342 7.39438 152.653 7.251 151.899 7.251C151.145 7.251 150.456 7.39438 149.789 7.66066C149.121 7.92694 148.54 8.29564 148.066 8.76675C147.57 9.23786 147.183 9.7909 146.903 10.4054C146.623 11.0404 146.472 11.6958 146.472 12.4127V17.5745H157.327V12.4127C157.327 11.7163 157.176 11.0404 156.896 10.4054ZM130.556 0C122.329 0 115.653 6.34975 115.653 14.1743V15.3418C115.653 23.1663 122.308 29.4956 130.535 29.4956H213.215V0H130.556ZM136.22 6.92327L131.224 6.94376C126.809 7.251 123.32 10.7741 123.32 15.055C123.32 19.336 126.809 22.8591 131.224 23.1663L136.22 23.1868V27.9594H131.224C123.751 27.9594 117.699 22.1832 117.699 15.055C117.699 7.92694 123.751 2.15072 131.224 2.15072H136.22V6.92327ZM162.754 27.8979H157.327V22.7362H146.45V27.8979H141.045V12.4127C141.045 10.9789 141.325 9.64752 141.906 8.39805C142.466 7.14859 143.241 6.0425 144.232 5.12076C145.201 4.17854 146.364 3.44116 147.678 2.9086C148.992 2.37604 150.413 2.08927 151.899 2.08927C153.385 2.08927 154.807 2.35555 156.12 2.9086C157.434 3.44116 158.597 4.17854 159.566 5.12076C160.536 6.06299 161.332 7.14859 161.892 8.39805C162.452 9.64752 162.732 10.9994 162.732 12.4127V27.8979H162.754ZM188.835 15.0141C188.598 15.8539 188.275 16.6527 187.823 17.4106C187.37 18.1685 186.853 18.8649 186.229 19.4999C185.604 20.1348 184.894 20.6879 184.118 21.159L187.133 27.9184H181.34L178.971 22.7157L172.898 22.7567V27.9184H167.47V2.10975H178.325C179.316 2.10975 180.285 2.23265 181.211 2.47845C182.137 2.72425 182.998 3.07246 183.795 3.52309C184.592 3.97372 185.324 4.50627 185.992 5.14125C186.66 5.77622 187.22 6.47264 187.693 7.23052C188.167 8.00887 188.533 8.8282 188.792 9.68848C189.05 10.5693 189.179 11.4705 189.179 12.4332C189.179 13.314 189.072 14.1743 188.835 15.0141ZM211.169 27.9594H192.647V22.8386H211.169V27.9594ZM211.169 17.513H192.647V12.3923H211.169V17.513ZM211.169 7.27149H192.647V2.15072H211.169V7.27149ZM182.158 8.76675C181.663 8.29564 181.103 7.92694 180.436 7.66066C179.768 7.39438 179.079 7.251 178.325 7.251H172.898V17.5949H178.325C179.079 17.5949 179.768 17.4516 180.436 17.1853C181.103 16.919 181.663 16.5503 182.158 16.0792C182.654 15.6081 183.041 15.055 183.321 14.4406C183.601 13.8056 183.752 13.1501 183.752 12.4332C183.752 11.7368 183.601 11.0609 183.321 10.4259C183.041 9.7909 182.654 9.23786 182.158 8.76675ZM155.733 8.76675C155.237 8.29564 154.656 7.92694 154.01 7.66066C153.342 7.39438 152.653 7.251 151.899 7.251C151.145 7.251 150.456 7.39438 149.789 7.66066C149.121 7.92694 148.54 8.29564 148.066 8.76675C147.57 9.23786 147.183 9.7909 146.903 10.4054C146.623 11.0404 146.472 11.6958 146.472 12.4127V17.5745H157.327V12.4127C157.327 11.7163 157.176 11.0404 156.896 10.4054C156.616 9.7909 156.228 9.23786 155.733 8.76675ZM183.321 10.4054C183.041 9.77042 182.654 9.21737 182.158 8.76675C181.663 8.29564 181.103 7.92694 180.436 7.66066C179.768 7.39438 179.079 7.251 178.325 7.251H172.898V17.5949H178.325C179.079 17.5949 179.768 17.4516 180.436 17.1853C181.103 16.919 181.663 16.5503 182.158 16.0792C182.654 15.6081 183.041 15.055 183.321 14.4406C183.601 13.8056 183.752 13.1501 183.752 12.4332C183.752 11.7163 183.601 11.0404 183.321 10.4054ZM183.321 10.4054C183.041 9.77042 182.654 9.21737 182.158 8.76675C181.663 8.29564 181.103 7.92694 180.436 7.66066C179.768 7.39438 179.079 7.251 178.325 7.251H172.898V17.5949H178.325C179.079 17.5949 179.768 17.4516 180.436 17.1853C181.103 16.919 181.663 16.5503 182.158 16.0792C182.654 15.6081 183.041 15.055 183.321 14.4406C183.601 13.8056 183.752 13.1501 183.752 12.4332C183.752 11.7163 183.601 11.0404 183.321 10.4054Z" fill="#FFA300"/>
<path d="M37.7326 27.6523H32.3484V19.623C31.1639 19.3362 30.0655 18.8856 29.0532 18.2506C28.0626 17.6156 27.2011 16.8578 26.4904 15.977C25.7797 15.0962 25.2197 14.1335 24.832 13.0684C24.4444 12.0033 24.229 10.8767 24.229 9.68869V1.98706H29.6347V9.68869C29.6347 10.3851 29.7855 11.0611 30.0655 11.6755C30.3455 12.3105 30.7331 12.8431 31.2285 13.3142C31.7238 13.7853 32.2838 14.154 32.9514 14.4203C33.619 14.6866 34.3082 14.8299 35.0405 14.8299C35.7727 14.8299 36.4834 14.6866 37.1295 14.4203C37.7972 14.154 38.3571 13.7853 38.8525 13.3142C39.3478 12.8431 39.7355 12.3105 40.0155 11.6755C40.2955 11.0406 40.4462 10.3851 40.4462 9.68869V1.98706H45.8304V9.68869C45.8304 10.8767 45.6366 12.0033 45.2274 13.0684C44.8397 14.1335 44.2798 15.1167 43.569 15.977C42.8583 16.8578 41.9969 17.6156 41.0062 18.2506C40.0155 18.8856 38.9171 19.3362 37.7326 19.623V27.6523Z" fill="white"/>
<path d="M60.8415 27.6522H55.4573V7.10768H47.3379V1.96643H68.9178V7.10768H60.8199V27.6522H60.8415Z" fill="white"/>
<path d="M92.1992 9.66806C92.1992 8.60294 92.4146 7.59927 92.8453 6.67753C93.2761 5.7558 93.8576 4.93648 94.5898 4.24005C95.3221 3.54363 96.1835 2.99058 97.1527 2.58092C98.1218 2.17126 99.1771 1.96643 100.297 1.96643H112.681V7.10768H100.297C99.9309 7.10768 99.5648 7.16913 99.2417 7.31251C98.9187 7.43541 98.6387 7.61975 98.3803 7.86555C98.1434 8.09086 97.9495 8.37763 97.7988 8.68487C97.6696 8.99212 97.5834 9.31985 97.5834 9.68854C97.5834 10.0572 97.648 10.385 97.7988 10.6922C97.928 10.9995 98.1218 11.2862 98.3803 11.5115C98.6172 11.7369 98.9187 11.9212 99.2417 12.0646C99.5648 12.1875 99.9094 12.2694 100.297 12.2694H105.703C106.823 12.2694 107.878 12.4742 108.847 12.8634C109.838 13.2731 110.699 13.8056 111.432 14.5021C112.164 15.1985 112.745 16.0178 113.155 16.96C113.585 17.9022 113.779 18.9059 113.779 19.9506C113.779 21.0157 113.564 22.0193 113.155 22.9411C112.724 23.8628 112.164 24.6821 111.432 25.3786C110.699 26.075 109.838 26.628 108.847 27.0377C107.856 27.4474 106.801 27.6522 105.703 27.6522H92.1992V22.5109H105.703C106.069 22.5109 106.435 22.4495 106.758 22.3061C107.081 22.1832 107.361 21.9989 107.62 21.7531C107.856 21.5278 108.05 21.241 108.201 20.9337C108.33 20.6265 108.416 20.2988 108.416 19.9301C108.416 19.5614 108.352 19.2336 108.201 18.9264C108.072 18.6192 107.878 18.3529 107.62 18.1071C107.383 17.8818 107.081 17.6974 106.758 17.554C106.435 17.4311 106.09 17.3492 105.703 17.3492H100.297C99.1771 17.3492 98.1218 17.1444 97.1527 16.7347C96.1835 16.3251 95.3221 15.772 94.5898 15.0756C93.8576 14.3792 93.2761 13.5598 92.8453 12.6176C92.4146 11.7368 92.1992 10.7332 92.1992 9.66806Z" fill="white"/>
<path d="M90.0241 1.84351H71.5024V6.96427H90.0241V1.84351Z" fill="white"/>
<path d="M90.0241 12.085H71.5024V17.2057H90.0241V12.085Z" fill="white"/>
<path d="M90.0241 22.5314H71.5024V27.6521H90.0241V22.5314Z" fill="white"/>
<path d="M23.0444 18.0251C23.0444 28.4715 14.645 27.6522 14.645 27.6522H0V22.9411H13.0298C13.0298 22.9411 17.8755 22.9411 17.8755 18.0251C17.8755 16.5913 16.1526 14.543 14.645 14.3382C12.2114 14.0104 8.63626 14.1333 8.18398 14.1333C8.18398 8.80775 8.83009 6.55461 4.95346 6.75944V17.6155H0V1.84351C14.8604 1.84351 13.3528 4.30147 13.7836 9.42224C14.645 9.62707 23.0444 9.42224 23.0444 18.0251Z" fill="white"/>
</g>
<defs>
<clipPath id="clip0_1478_2298">
<rect width="213.214" height="29.4956" fill="white"/>
</clipPath>
</defs>
</svg>
