<svg width="214" height="30" viewBox="0 0 214 30" fill="none" xmlns="http://www.w3.org/2000/svg">
<g clip-path="url(#clip0_1478_1915)">
<path d="M40.4463 2.22933V10.0627C40.4463 10.771 40.317 11.4585 40.0155 12.0835C39.7356 12.7293 39.3479 13.271 38.8525 13.7502C38.3572 14.2293 37.7972 14.6043 37.1296 14.8752C36.462 15.146 35.7728 15.2918 35.0405 15.2918C34.3083 15.2918 33.5976 15.1668 32.9299 14.8752C32.2623 14.6043 31.7023 14.2293 31.207 13.7502C30.7116 13.271 30.324 12.7293 30.044 12.0835C29.764 11.4377 29.6133 10.771 29.6133 10.0627V2.22933H24.2075V10.0627C24.2075 11.271 24.4014 12.4168 24.8106 13.5002C25.1982 14.5835 25.7582 15.5835 26.4689 16.4793C27.1796 17.3752 28.0411 18.146 29.0318 18.7918C30.0225 19.4377 31.1208 19.896 32.3269 20.1877V28.3335H37.7111V20.1668C38.8956 19.8752 39.994 19.4168 40.9847 18.771C41.9754 18.1252 42.8369 17.3543 43.5476 16.4585C44.2583 15.5627 44.8182 14.5835 45.2059 13.4793C45.5936 12.396 45.8089 11.2502 45.8089 10.0418V2.2085H40.4463V2.22933Z" fill="url(#paint0_linear_1478_1915)"/>
<path d="M47.3379 2.22949V7.45865H55.4573V28.3337H60.8415V7.45865H68.9178V2.22949H47.3379Z" fill="url(#paint1_linear_1478_1915)"/>
<path d="M113.155 17.4585C112.724 16.5002 112.164 15.6668 111.432 14.9585C110.699 14.2502 109.838 13.6877 108.847 13.2918C107.856 12.8752 106.801 12.6877 105.703 12.6877H100.297C99.9309 12.6877 99.5648 12.6252 99.2418 12.4793C98.9187 12.3543 98.6387 12.1668 98.3803 11.9168C98.1434 11.6877 97.9495 11.396 97.7988 11.0835C97.648 10.771 97.5834 10.4168 97.5834 10.0627C97.5834 9.70849 97.648 9.35433 97.7988 9.04183C97.928 8.72933 98.1218 8.45849 98.3803 8.20849C98.6172 7.97933 98.9187 7.79183 99.2418 7.646C99.5648 7.521 99.9094 7.43766 100.297 7.43766H112.681V2.2085H100.297C99.1771 2.2085 98.1218 2.41683 97.1527 2.8335C96.1835 3.25016 95.3221 3.81266 94.5898 4.521C93.8576 5.22933 93.2761 6.06266 92.8453 7.00016C92.4146 7.9585 92.1992 8.9585 92.1992 10.0418C92.1992 11.1252 92.4146 12.146 92.8453 13.0835C93.2761 14.0418 93.8576 14.8752 94.5898 15.5835C95.3221 16.2918 96.1835 16.8543 97.1527 17.271C98.1218 17.6877 99.1771 17.896 100.297 17.896H105.703C106.09 17.896 106.435 17.9585 106.758 18.1043C107.081 18.2293 107.361 18.4168 107.62 18.6668C107.856 18.896 108.05 19.1877 108.201 19.5002C108.33 19.8127 108.416 20.1668 108.416 20.521C108.416 20.8752 108.352 21.2293 108.201 21.5418C108.05 21.8543 107.878 22.1252 107.62 22.3752C107.383 22.6043 107.081 22.7918 106.758 22.9377C106.435 23.0627 106.09 23.146 105.703 23.146H92.1992V28.3335H105.703C106.823 28.3335 107.878 28.1252 108.847 27.7085C109.838 27.2918 110.699 26.7293 111.432 26.021C112.164 25.3127 112.745 24.4793 113.155 23.5418C113.585 22.6043 113.779 21.5835 113.779 20.5002C113.779 19.4168 113.564 18.396 113.155 17.4585Z" fill="url(#paint2_linear_1478_1915)"/>
<path d="M90.0241 2.0835H71.5024V7.29183H90.0241V2.0835Z" fill="url(#paint3_linear_1478_1915)"/>
<path d="M90.0241 12.5H71.5024V17.7083H90.0241V12.5Z" fill="url(#paint4_linear_1478_1915)"/>
<path d="M90.0241 23.125H71.5024V28.3333H90.0241V23.125Z" fill="url(#paint5_linear_1478_1915)"/>
<path d="M23.0444 18.5418C23.0444 29.1668 14.645 28.3335 14.645 28.3335H0V23.5418H13.0298C13.0298 23.5418 17.8755 23.5418 17.8755 18.5418C17.8755 17.0835 16.1526 15.0002 14.645 14.7918C12.2114 14.4585 8.63626 14.5835 8.18398 14.5835C8.18398 9.16683 8.83009 6.87516 4.95346 7.0835V18.1252H0V2.0835C14.8604 2.0835 13.3528 4.5835 13.7836 9.79183C14.645 10.0002 23.0444 9.79183 23.0444 18.5418Z" fill="url(#paint6_linear_1478_1915)"/>
<path d="M156.896 10.5833C156.616 9.9375 156.228 9.375 155.733 8.91666C155.237 8.4375 154.656 8.0625 154.01 7.79167C153.342 7.52083 152.653 7.375 151.899 7.375C151.145 7.375 150.456 7.52083 149.789 7.79167C149.121 8.0625 148.54 8.4375 148.066 8.91666C147.57 9.39583 147.183 9.95833 146.903 10.5833C146.623 11.2292 146.472 11.8958 146.472 12.625V17.875H157.327V12.625C157.327 11.9167 157.176 11.2292 156.896 10.5833ZM183.321 10.5833C183.041 9.9375 182.654 9.375 182.158 8.91666C181.663 8.4375 181.103 8.0625 180.436 7.79167C179.768 7.52083 179.079 7.375 178.325 7.375H172.898V17.8958H178.325C179.079 17.8958 179.768 17.75 180.436 17.4792C181.103 17.2083 181.663 16.8333 182.158 16.3542C182.654 15.875 183.041 15.3125 183.321 14.6875C183.601 14.0417 183.752 13.375 183.752 12.6458C183.752 11.9167 183.601 11.2292 183.321 10.5833ZM183.321 10.5833C183.041 9.9375 182.654 9.375 182.158 8.91666C181.663 8.4375 181.103 8.0625 180.436 7.79167C179.768 7.52083 179.079 7.375 178.325 7.375H172.898V17.8958H178.325C179.079 17.8958 179.768 17.75 180.436 17.4792C181.103 17.2083 181.663 16.8333 182.158 16.3542C182.654 15.875 183.041 15.3125 183.321 14.6875C183.601 14.0417 183.752 13.375 183.752 12.6458C183.752 11.9167 183.601 11.2292 183.321 10.5833ZM156.896 10.5833C156.616 9.9375 156.228 9.375 155.733 8.91666C155.237 8.4375 154.656 8.0625 154.01 7.79167C153.342 7.52083 152.653 7.375 151.899 7.375C151.145 7.375 150.456 7.52083 149.789 7.79167C149.121 8.0625 148.54 8.4375 148.066 8.91666C147.57 9.39583 147.183 9.95833 146.903 10.5833C146.623 11.2292 146.472 11.8958 146.472 12.625V17.875H157.327V12.625C157.327 11.9167 157.176 11.2292 156.896 10.5833ZM130.556 0C122.329 0 115.653 6.45834 115.653 14.4167V15.6042C115.653 23.5625 122.308 30 130.535 30H213.215V0H130.556ZM136.22 7.04166L131.224 7.0625C126.809 7.375 123.32 10.9583 123.32 15.3125C123.32 19.6667 126.809 23.25 131.224 23.5625L136.22 23.5833V28.4375H131.224C123.751 28.4375 117.699 22.5625 117.699 15.3125C117.699 8.0625 123.751 2.1875 131.224 2.1875H136.22V7.04166ZM162.754 28.375H157.327V23.125H146.45V28.375H141.045V12.625C141.045 11.1667 141.325 9.8125 141.906 8.54167C142.466 7.27083 143.241 6.14583 144.232 5.20833C145.201 4.25 146.364 3.5 147.678 2.95834C148.992 2.41667 150.413 2.125 151.899 2.125C153.385 2.125 154.807 2.39584 156.12 2.95834C157.434 3.5 158.597 4.25 159.566 5.20833C160.536 6.16667 161.332 7.27083 161.892 8.54167C162.452 9.8125 162.732 11.1875 162.732 12.625V28.375H162.754ZM188.835 15.2708C188.598 16.125 188.275 16.9375 187.823 17.7083C187.37 18.4792 186.853 19.1875 186.229 19.8333C185.604 20.4792 184.894 21.0417 184.118 21.5208L187.133 28.3958H181.34L178.971 23.1042L172.898 23.1458V28.3958H167.47V2.14583H178.325C179.316 2.14583 180.285 2.27083 181.211 2.52083C182.137 2.77083 182.998 3.125 183.795 3.58334C184.592 4.04167 185.324 4.58333 185.992 5.22917C186.66 5.875 187.22 6.58333 187.693 7.35416C188.167 8.14583 188.533 8.97916 188.792 9.85416C189.05 10.75 189.179 11.6667 189.179 12.6458C189.179 13.5417 189.072 14.4167 188.835 15.2708ZM211.169 28.4375H192.647V23.2292H211.169V28.4375ZM211.169 17.8125H192.647V12.6042H211.169V17.8125ZM211.169 7.39583H192.647V2.1875H211.169V7.39583ZM182.158 8.91666C181.663 8.4375 181.103 8.0625 180.436 7.79167C179.768 7.52083 179.079 7.375 178.325 7.375H172.898V17.8958H178.325C179.079 17.8958 179.768 17.75 180.436 17.4792C181.103 17.2083 181.663 16.8333 182.158 16.3542C182.654 15.875 183.041 15.3125 183.321 14.6875C183.601 14.0417 183.752 13.375 183.752 12.6458C183.752 11.9375 183.601 11.25 183.321 10.6042C183.041 9.95833 182.654 9.39583 182.158 8.91666ZM155.733 8.91666C155.237 8.4375 154.656 8.0625 154.01 7.79167C153.342 7.52083 152.653 7.375 151.899 7.375C151.145 7.375 150.456 7.52083 149.789 7.79167C149.121 8.0625 148.54 8.4375 148.066 8.91666C147.57 9.39583 147.183 9.95833 146.903 10.5833C146.623 11.2292 146.472 11.8958 146.472 12.625V17.875H157.327V12.625C157.327 11.9167 157.176 11.2292 156.896 10.5833C156.616 9.95833 156.228 9.39583 155.733 8.91666ZM183.321 10.5833C183.041 9.9375 182.654 9.375 182.158 8.91666C181.663 8.4375 181.103 8.0625 180.436 7.79167C179.768 7.52083 179.079 7.375 178.325 7.375H172.898V17.8958H178.325C179.079 17.8958 179.768 17.75 180.436 17.4792C181.103 17.2083 181.663 16.8333 182.158 16.3542C182.654 15.875 183.041 15.3125 183.321 14.6875C183.601 14.0417 183.752 13.375 183.752 12.6458C183.752 11.9167 183.601 11.2292 183.321 10.5833ZM183.321 10.5833C183.041 9.9375 182.654 9.375 182.158 8.91666C181.663 8.4375 181.103 8.0625 180.436 7.79167C179.768 7.52083 179.079 7.375 178.325 7.375H172.898V17.8958H178.325C179.079 17.8958 179.768 17.75 180.436 17.4792C181.103 17.2083 181.663 16.8333 182.158 16.3542C182.654 15.875 183.041 15.3125 183.321 14.6875C183.601 14.0417 183.752 13.375 183.752 12.6458C183.752 11.9167 183.601 11.2292 183.321 10.5833Z" fill="#FFA300"/>
<path d="M37.7326 28.1252H32.3484V19.9585C31.1639 19.6668 30.0655 19.2085 29.0532 18.5627C28.0626 17.9168 27.2011 17.146 26.4904 16.2502C25.7797 15.3543 25.2197 14.3752 24.832 13.2918C24.4444 12.2085 24.229 11.0627 24.229 9.85432V2.021H29.6347V9.85432C29.6347 10.5627 29.7855 11.2502 30.0655 11.8752C30.3455 12.521 30.7331 13.0627 31.2285 13.5418C31.7238 14.021 32.2838 14.396 32.9514 14.6668C33.619 14.9377 34.3082 15.0835 35.0405 15.0835C35.7727 15.0835 36.4834 14.9377 37.1295 14.6668C37.7972 14.396 38.3571 14.021 38.8525 13.5418C39.3478 13.0627 39.7355 12.521 40.0155 11.8752C40.2955 11.2293 40.4462 10.5627 40.4462 9.85432V2.021H45.8304V9.85432C45.8304 11.0627 45.6366 12.2085 45.2274 13.2918C44.8397 14.3752 44.2798 15.3752 43.569 16.2502C42.8583 17.146 41.9969 17.9168 41.0062 18.5627C40.0155 19.2085 38.9171 19.6668 37.7326 19.9585V28.1252Z" fill="black"/>
<path d="M60.8415 28.125H55.4573V7.22917H47.3379V2H68.9178V7.22917H60.8199V28.125H60.8415Z" fill="black"/>
<path d="M92.1992 9.83333C92.1992 8.75 92.4146 7.72917 92.8453 6.79167C93.2761 5.85417 93.8576 5.02083 94.5898 4.3125C95.3221 3.60417 96.1835 3.04167 97.1527 2.625C98.1218 2.20833 99.1771 2 100.297 2H112.681V7.22917H100.297C99.9309 7.22917 99.5648 7.29167 99.2417 7.4375C98.9187 7.5625 98.6387 7.75 98.3803 8C98.1434 8.22916 97.9495 8.52083 97.7988 8.83333C97.6696 9.14583 97.5834 9.47916 97.5834 9.85416C97.5834 10.2292 97.648 10.5625 97.7988 10.875C97.928 11.1875 98.1218 11.4792 98.3803 11.7083C98.6172 11.9375 98.9187 12.125 99.2417 12.2708C99.5648 12.3958 99.9094 12.4792 100.297 12.4792H105.703C106.823 12.4792 107.878 12.6875 108.847 13.0833C109.838 13.5 110.699 14.0417 111.432 14.75C112.164 15.4583 112.745 16.2917 113.155 17.25C113.585 18.2083 113.779 19.2292 113.779 20.2917C113.779 21.375 113.564 22.3958 113.155 23.3333C112.724 24.2708 112.164 25.1042 111.432 25.8125C110.699 26.5208 109.838 27.0833 108.847 27.5C107.856 27.9167 106.801 28.125 105.703 28.125H92.1992V22.8958H105.703C106.069 22.8958 106.435 22.8333 106.758 22.6875C107.081 22.5625 107.361 22.375 107.62 22.125C107.856 21.8958 108.05 21.6042 108.201 21.2917C108.33 20.9792 108.416 20.6458 108.416 20.2708C108.416 19.8958 108.352 19.5625 108.201 19.25C108.072 18.9375 107.878 18.6667 107.62 18.4167C107.383 18.1875 107.081 18 106.758 17.8542C106.435 17.7292 106.09 17.6458 105.703 17.6458H100.297C99.1771 17.6458 98.1218 17.4375 97.1527 17.0208C96.1835 16.6042 95.3221 16.0417 94.5898 15.3333C93.8576 14.625 93.2761 13.7917 92.8453 12.8333C92.4146 11.9375 92.1992 10.9167 92.1992 9.83333Z" fill="black"/>
<path d="M90.0241 1.875H71.5024V7.08333H90.0241V1.875Z" fill="black"/>
<path d="M90.0241 12.2915H71.5024V17.4998H90.0241V12.2915Z" fill="black"/>
<path d="M90.0241 22.9165H71.5024V28.1248H90.0241V22.9165Z" fill="black"/>
<path d="M23.0444 18.3333C23.0444 28.9583 14.645 28.125 14.645 28.125H0V23.3333H13.0298C13.0298 23.3333 17.8755 23.3333 17.8755 18.3333C17.8755 16.875 16.1526 14.7917 14.645 14.5833C12.2114 14.25 8.63626 14.375 8.18398 14.375C8.18398 8.95833 8.83009 6.66667 4.95346 6.875V17.9167H0V1.875C14.8604 1.875 13.3528 4.375 13.7836 9.58333C14.645 9.79167 23.0444 9.58333 23.0444 18.3333Z" fill="black"/>
</g>
<defs>
<linearGradient id="paint0_linear_1478_1915" x1="35.0351" y1="26.9979" x2="35.0351" y2="1.99714" gradientUnits="userSpaceOnUse">
<stop stop-color="#282828"/>
<stop offset="1" stop-color="#696868"/>
</linearGradient>
<linearGradient id="paint1_linear_1478_1915" x1="58.1311" y1="26.998" x2="58.1311" y2="1.99731" gradientUnits="userSpaceOnUse">
<stop stop-color="#282828"/>
<stop offset="1" stop-color="#696868"/>
</linearGradient>
<linearGradient id="paint2_linear_1478_1915" x1="102.987" y1="26.9979" x2="102.987" y2="1.99714" gradientUnits="userSpaceOnUse">
<stop stop-color="#282828"/>
<stop offset="1" stop-color="#696868"/>
</linearGradient>
<linearGradient id="paint3_linear_1478_1915" x1="80.7633" y1="26.9979" x2="80.7633" y2="1.99714" gradientUnits="userSpaceOnUse">
<stop stop-color="#282828"/>
<stop offset="1" stop-color="#696868"/>
</linearGradient>
<linearGradient id="paint4_linear_1478_1915" x1="80.7633" y1="26.9977" x2="80.7633" y2="1.99698" gradientUnits="userSpaceOnUse">
<stop stop-color="#282828"/>
<stop offset="1" stop-color="#696868"/>
</linearGradient>
<linearGradient id="paint5_linear_1478_1915" x1="80.7633" y1="26.9977" x2="80.7633" y2="1.99699" gradientUnits="userSpaceOnUse">
<stop stop-color="#282828"/>
<stop offset="1" stop-color="#696868"/>
</linearGradient>
<linearGradient id="paint6_linear_1478_1915" x1="11.5222" y1="26.9979" x2="11.5222" y2="1.99714" gradientUnits="userSpaceOnUse">
<stop stop-color="#282828"/>
<stop offset="1" stop-color="#696868"/>
</linearGradient>
<clipPath id="clip0_1478_1915">
<rect width="213.214" height="30" fill="white"/>
</clipPath>
</defs>
</svg>
