<svg width="71" height="71" viewBox="0 0 71 71" fill="none" xmlns="http://www.w3.org/2000/svg">
<circle opacity="0.1" cx="35.5" cy="35.5" r="35.5" fill="#FFA300"/>
<g clip-path="url(#clip0_1580_10)">
<path fill-rule="evenodd" clip-rule="evenodd" d="M49.4966 46.2594C48.6323 48.8858 45.2462 50.1957 42.827 49.9773C39.523 49.6786 35.9278 47.9261 33.1987 45.996C29.1872 43.1587 25.4296 38.7698 23.24 34.1124C21.6926 30.8215 21.3454 26.7753 23.647 23.7756C24.4982 22.6668 25.4184 22.0746 26.8016 22.0055C28.7206 21.9122 28.9894 23.01 29.6483 24.7198C30.1392 25.9985 30.7944 27.3028 31.1603 28.6282C31.8454 31.1015 29.4504 31.2049 29.148 33.2265C28.9595 34.5014 30.5051 36.2112 31.2032 37.1202C32.5715 38.901 34.216 40.437 36.0715 41.6055C37.1336 42.2757 38.8491 43.4832 40.0662 42.8168C41.9403 41.7902 41.763 38.6301 44.3838 39.6997C45.7408 40.2522 47.055 41.0496 48.3504 41.7477C50.3534 42.8248 50.26 43.941 49.4966 46.2594C48.9254 47.9917 50.0678 44.5272 49.4966 46.2594Z" fill="#FFC200"/>
</g>
<defs>
<clipPath id="clip0_1580_10">
<rect width="28" height="28" fill="white" transform="translate(22 22)"/>
</clipPath>
</defs>
</svg>
