<svg width="37" height="31" viewBox="0 0 37 31" fill="none" xmlns="http://www.w3.org/2000/svg">
<path d="M19.9425 17.3402L17.5858 19.6553L16.771 18.8521C16.6833 18.7656 16.579 18.6969 16.4642 18.65C16.3495 18.6031 16.2264 18.5789 16.1021 18.5788C15.9778 18.5787 15.8547 18.6027 15.7398 18.6494C15.625 18.6961 15.5206 18.7647 15.4327 18.8511C15.3448 18.9375 15.2751 19.0401 15.2276 19.1531C15.1801 19.266 15.1557 19.387 15.1558 19.5092C15.1559 19.6315 15.1805 19.7525 15.2282 19.8653C15.2759 19.9782 15.3458 20.0807 15.4338 20.167L16.9182 21.6265C17.0957 21.7997 17.3356 21.897 17.5857 21.897C17.8359 21.897 18.0758 21.7997 18.2533 21.6265L21.2776 18.6529C21.4546 18.4789 21.5541 18.2428 21.5541 17.9966C21.5541 17.7504 21.4546 17.5143 21.2776 17.3402C21.1005 17.1662 20.8604 17.0684 20.61 17.0684C20.3596 17.0684 20.1195 17.1662 19.9425 17.3402Z" fill="#2F4858"/>
<path d="M27.2306 12.4063H9.95489C9.84176 12.4062 9.73326 12.4504 9.65327 12.5291C9.57327 12.6077 9.52832 12.7144 9.52832 12.8256V16.1912L10.9147 17.5541V22.9138C10.3729 23.4465 10.0701 23.7442 9.52832 24.2768V27.504C9.52832 27.559 9.53935 27.6136 9.56079 27.6645C9.58223 27.7153 9.61365 27.7616 9.65326 27.8005C9.69287 27.8395 9.7399 27.8703 9.79165 27.8914C9.84341 27.9125 9.89887 27.9233 9.95489 27.9233H13.3076L14.694 26.5604H22.4915L23.8778 27.9233H27.2306C27.3437 27.9233 27.4522 27.8792 27.5322 27.8005C27.6122 27.7219 27.6571 27.6152 27.6571 27.504V24.2768L26.2708 22.9138V17.5541L27.6571 16.1912V12.8256C27.6571 12.7706 27.6461 12.716 27.6246 12.6651C27.6032 12.6143 27.5718 12.568 27.5322 12.5291C27.4926 12.4901 27.4455 12.4592 27.3938 12.4382C27.342 12.4171 27.2866 12.4063 27.2306 12.4063ZM18.5927 24.5998C17.5633 24.5995 16.557 24.2992 15.7011 23.7367C14.8453 23.1742 14.1783 22.3749 13.7845 21.4397C13.3907 20.5045 13.2879 19.4755 13.4889 18.4829C13.69 17.4902 14.1859 16.5785 14.914 15.8629C15.6421 15.1474 16.5696 14.6602 17.5794 14.4629C18.5891 14.2657 19.6356 14.3672 20.5867 14.7547C21.5377 15.1422 22.3505 15.7983 22.9222 16.64C23.494 17.4817 23.7991 18.4712 23.7989 19.4833C23.7988 20.1554 23.6641 20.8208 23.4024 21.4417C23.1407 22.0625 22.7571 22.6266 22.2737 23.1017C21.7903 23.5768 21.2164 23.9537 20.5848 24.2107C19.9532 24.4677 19.2763 24.5999 18.5927 24.5998Z" fill="#FFA300"/>
<path d="M14.4335 6.98051C14.4335 5.89605 14.8716 4.85601 15.6516 4.08919C16.4315 3.32236 17.4894 2.89156 18.5924 2.89156C19.6954 2.89156 20.7533 3.32236 21.5332 4.08919C22.3132 4.85601 22.7513 5.89605 22.7513 6.98051V10.6123H25.0974V6.98051C25.0974 5.28431 24.4121 3.65757 23.1921 2.45817C21.9722 1.25878 20.3176 0.584961 18.5924 0.584961C16.8672 0.584961 15.2126 1.25878 13.9927 2.45817C12.7727 3.65757 12.0874 5.28431 12.0874 6.98051V10.6123H14.4335V6.98051Z" fill="#FFA300"/>
<path d="M4.8996 24.7424L3.39812 26.2186C3.17759 26.1384 2.94436 26.0973 2.70923 26.097C2.27793 26.0957 1.85748 26.2298 1.50906 26.4797C1.16064 26.7297 0.902445 27.0824 0.77205 27.4866C0.641656 27.8908 0.64587 28.3254 0.784078 28.727C0.922287 29.1287 1.18728 29.4766 1.54048 29.7199C1.89368 29.9633 2.31666 30.0894 2.74785 30.0801C3.17905 30.0707 3.59595 29.9263 3.93788 29.6679C4.27981 29.4094 4.52892 29.0504 4.64895 28.6431C4.76899 28.2358 4.75369 27.8015 4.60527 27.4034L5.85509 26.1746H7.82153V24.4971H5.50317C5.39109 24.4968 5.28006 24.5184 5.17647 24.5605C5.07289 24.6026 4.97879 24.6644 4.8996 24.7424Z" fill="#2F4858"/>
<path d="M3.326 18.1812C2.96427 18.1807 2.60907 18.2758 2.29757 18.4566C1.98607 18.6374 1.72974 18.8972 1.55542 19.2088C1.38109 19.5204 1.29518 19.8724 1.30668 20.2279C1.31818 20.5833 1.42667 20.9292 1.62079 21.2293C1.8149 21.5294 2.08751 21.7726 2.41006 21.9336C2.73261 22.0946 3.09325 22.1673 3.45422 22.1443C3.81519 22.1212 4.1632 22.0031 4.46183 21.8024C4.76047 21.6017 4.99873 21.3258 5.15168 21.0035H9.20825V19.326H5.15168C4.99017 18.9839 4.73246 18.6942 4.40897 18.4914C4.08547 18.2885 3.7097 18.1809 3.326 18.1812Z" fill="#2F4858"/>
<path d="M2.70951 14.2326C2.94464 14.2323 3.17786 14.1911 3.3984 14.111L4.89986 15.5872C4.97906 15.6652 5.07315 15.727 5.17673 15.7691C5.28032 15.8112 5.39135 15.8328 5.50343 15.8325H7.82178V14.155H5.85535L4.60553 12.9262C4.75198 12.5298 4.76608 12.0978 4.64578 11.6929C4.52549 11.288 4.27706 10.9314 3.93657 10.6749C3.59609 10.4183 3.18128 10.2751 2.75238 10.2661C2.32349 10.2571 1.90284 10.3827 1.55152 10.6248C1.20021 10.8668 0.936519 11.2127 0.798753 11.6121C0.660986 12.0116 0.656314 12.4438 0.785415 12.846C0.914516 13.2482 1.17067 13.5995 1.51667 13.8489C1.86267 14.0982 2.28051 14.2326 2.70951 14.2326V14.2326Z" fill="#2F4858"/>
<path d="M32.2852 15.5872L33.7867 14.111C34.0072 14.1912 34.2405 14.2323 34.4756 14.2326C34.9069 14.2339 35.3273 14.0998 35.6758 13.8498C36.0242 13.5999 36.2824 13.2472 36.4128 12.843C36.5432 12.4388 36.5389 12.0042 36.4007 11.6025C36.2625 11.2009 35.9975 10.853 35.6443 10.6097C35.2911 10.3663 34.8681 10.2401 34.437 10.2495C34.0058 10.2589 33.5889 10.4033 33.2469 10.6617C32.905 10.9202 32.6559 11.2792 32.5359 11.6865C32.4158 12.0938 32.4311 12.5281 32.5795 12.9262L31.3297 14.155H29.3633V15.8325H31.6838C31.7955 15.8326 31.9062 15.8109 32.0094 15.7688C32.1126 15.7267 32.2063 15.665 32.2852 15.5872Z" fill="#2F4858"/>
<path d="M33.8589 22.1484C34.2206 22.1489 34.5758 22.0538 34.8873 21.873C35.1988 21.6922 35.4552 21.4324 35.6295 21.1208C35.8038 20.8092 35.8898 20.4572 35.8783 20.1017C35.8668 19.7463 35.7583 19.4004 35.5641 19.1003C35.37 18.8002 35.0974 18.557 34.7749 18.396C34.4523 18.235 34.0917 18.1623 33.7307 18.1853C33.3697 18.2084 33.0217 18.3265 32.7231 18.5272C32.4244 18.7278 32.1862 19.0038 32.0332 19.3261H27.9766V21.0035H32.0332C32.1951 21.3455 32.4529 21.6348 32.7763 21.8377C33.0997 22.0405 33.4753 22.1483 33.8589 22.1484Z" fill="#2F4858"/>
<path d="M34.4755 26.097C34.2404 26.0973 34.0072 26.1384 33.7867 26.2186L32.2852 24.7424C32.2063 24.6646 32.1126 24.6029 32.0093 24.5608C31.9061 24.5187 31.7955 24.497 31.6837 24.4971H29.3633V26.1746H31.3297L32.5795 27.4034C32.4331 27.7998 32.419 28.2318 32.5393 28.6367C32.6596 29.0415 32.908 29.3982 33.2485 29.6547C33.589 29.9113 34.0038 30.0545 34.4327 30.0635C34.8616 30.0725 35.2822 29.9469 35.6335 29.7048C35.9848 29.4628 36.2485 29.1169 36.3863 28.7175C36.5241 28.318 36.5287 27.8858 36.3996 27.4836C36.2705 27.0814 36.0144 26.7301 35.6684 26.4807C35.3224 26.2314 34.9045 26.097 34.4755 26.097Z" fill="#2F4858"/>
</svg>
