<svg width="80" height="80" viewBox="0 0 80 80" fill="none" xmlns="http://www.w3.org/2000/svg">
<circle cx="40" cy="40" r="40" fill="#FFF8EE"/>
<path fill-rule="evenodd" clip-rule="evenodd" d="M53.6308 34.3661C53.2347 33.5463 52.1266 31.3028 51.3378 30.1952C50.5409 29.0763 48.7826 27.2941 48.1359 26.6501L48.8725 26.143C49.1809 25.9307 49.2378 25.4871 48.9994 25.1523L47.704 23.3333C47.4639 22.9962 47.0214 22.9 46.7118 23.1131C46.7118 23.1131 43.4869 24.9338 42.0364 25.9323C40.4972 26.992 37.7427 29.2877 37.7427 29.2877C37.4317 29.5018 37.3755 29.9449 37.6139 30.2797L38.9094 32.0986C39.1495 32.4358 39.5918 32.5321 39.9011 32.3192L40.5922 31.8434C40.8614 32.3762 41.4471 33.5171 42.0355 34.5459L23.7304 47.1477C22.9546 47.6818 22.768 48.7296 23.3099 49.4905C23.8508 50.2499 24.9188 50.4363 25.6929 49.9033L43.9943 37.3041C44.7835 38.211 45.6697 39.133 46.0861 39.5601L45.3962 40.035C45.0869 40.248 45.0277 40.6896 45.2678 41.0267L46.5633 42.8457C46.8017 43.1804 47.2444 43.2801 47.5554 43.066C47.5554 43.066 50.7414 41.2941 52.2414 40.2615C53.7311 39.2359 56.5245 36.8913 56.5245 36.8913C56.834 36.6782 56.8934 36.2365 56.6533 35.8994L55.3579 34.0804C55.1195 33.7457 54.676 33.6465 54.3676 33.8589L53.6308 34.3661Z" stroke="#F48100" stroke-width="2.4" stroke-linecap="round" stroke-linejoin="round"/>
<path fill-rule="evenodd" clip-rule="evenodd" d="M54.4057 53.0642H55.8014C56.3924 53.0642 56.8716 53.532 56.8716 54.1148V55.3777C56.8716 55.9579 56.3962 56.4282 55.8014 56.4282H40.8338C40.2428 56.4282 39.7637 55.9605 39.7637 55.3777V54.1148C39.7637 53.5346 40.2391 53.0642 40.8338 53.0642H42.2297C42.1839 52.9472 42.1588 52.8198 42.1588 52.6865V51.4236C42.1588 50.8434 42.6341 50.373 43.2303 50.373H53.4049C53.9967 50.373 54.4765 50.8408 54.4765 51.4236V52.6865C54.4765 52.8196 54.4514 52.947 54.4057 53.0642Z" stroke="#F48100" stroke-width="2.4" stroke-linecap="round" stroke-linejoin="round"/>
<path d="M49.2155 26.1426L47.2264 27.5119M42.2579 30.9324L40.2441 32.3187L42.2579 30.9324Z" stroke="#F48100" stroke-width="2.4" stroke-linecap="round" stroke-linejoin="round"/>
<path d="M54.7101 33.8589L52.721 35.2282M47.7525 38.6487L45.7388 40.035L47.7525 38.6487Z" stroke="#F48100" stroke-width="2.4" stroke-linecap="round" stroke-linejoin="round"/>
</svg>
