<svg width="633" height="560" viewBox="0 0 633 560" fill="none" xmlns="http://www.w3.org/2000/svg">
<path d="M168.88 440.463C88.5061 440.463 49.8552 481.513 141.282 483.618C232.708 485.724 358.737 509.248 259.122 529.668C194.814 542.851 213.003 562.824 347.979 559.666C482.956 556.509 620.695 525.149 566.053 502.129C511.412 479.108 507.422 483.092 530.845 472.566C554.267 462.041 574.235 436.937 436.101 438.963C297.967 440.989 168.88 440.463 168.88 440.463Z" fill="#FFBF00" fill-opacity="0.1"/>
<path d="M191.415 453.273C42.9668 280.619 121.219 163.009 217.571 202.537C313.923 242.065 337.666 160.428 309.657 102.162C281.648 43.8954 338.816 -47.9618 416.756 30.0553C494.696 108.072 395.123 188.877 453.559 202.537C511.994 216.197 520.564 170.057 555.841 166.677C612.151 161.281 622.293 253.714 558.017 264.061C493.742 274.407 449.666 343.498 462.231 370.002C474.794 396.506 499.842 458.878 446.794 461.9C393.746 464.923 191.415 453.273 191.415 453.273Z" fill="#FFBF00" fill-opacity="0.15"/>
<g opacity="0.5">
<path d="M160.965 345.222C158.356 345.222 156.231 343.097 156.231 340.485H158.955C158.955 341.595 159.857 342.498 160.965 342.498C162.074 342.498 162.979 341.595 162.979 340.485C162.979 339.375 162.075 338.472 160.965 338.472V335.749C163.577 335.749 165.703 337.872 165.703 340.485C165.703 343.097 163.577 345.222 160.965 345.222Z" fill="#F9C6B5"/>
<path d="M128.576 286.363C125.967 286.363 123.842 284.238 123.842 281.626H126.566C126.566 282.736 127.467 283.64 128.576 283.64C129.685 283.64 130.59 282.736 130.59 281.626C130.59 280.516 129.686 279.613 128.576 279.613V276.89C131.188 276.89 133.314 279.013 133.314 281.626C133.314 284.238 131.189 286.363 128.576 286.363Z" fill="#F9C6B5"/>
<path d="M164.089 213.745C161.48 213.745 159.355 211.62 159.355 209.008H162.079C162.079 210.118 162.981 211.021 164.089 211.021C165.199 211.021 166.103 210.118 166.103 209.008C166.103 207.898 165.199 206.995 164.089 206.995V204.271C166.701 204.271 168.827 206.395 168.827 209.008C168.827 211.62 166.701 213.745 164.089 213.745Z" fill="#F9C6B5"/>
<path d="M242.008 239.06C239.399 239.06 237.274 236.935 237.274 234.323H239.998C239.998 235.433 240.9 236.336 242.008 236.336C243.118 236.336 244.022 235.433 244.022 234.323C244.022 233.213 243.118 232.31 242.008 232.31V229.586C244.62 229.586 246.746 231.71 246.746 234.323C246.746 236.935 244.621 239.06 242.008 239.06Z" fill="#F9C6B5"/>
<path d="M184.101 287.11C181.491 287.11 179.366 284.984 179.366 282.372H182.09C182.09 283.483 182.992 284.386 184.101 284.386C185.21 284.386 186.114 283.483 186.114 282.372C186.114 281.263 185.21 280.36 184.101 280.36V277.636C186.713 277.636 188.838 279.76 188.838 282.372C188.838 284.984 186.713 287.11 184.101 287.11Z" fill="#F9C6B5"/>
<path d="M367.385 177.256C364.775 177.256 362.65 175.131 362.65 172.519H365.374C365.374 173.63 366.276 174.533 367.385 174.533C368.494 174.533 369.399 173.63 369.399 172.519C369.399 171.41 368.494 170.506 367.385 170.506V167.783C369.997 167.783 372.122 169.907 372.122 172.519C372.122 175.131 369.997 177.256 367.385 177.256Z" fill="#F9C6B5"/>
<path d="M526.112 235.194C523.503 235.194 521.378 233.068 521.378 230.456H524.102C524.102 231.567 525.004 232.47 526.112 232.47C527.222 232.47 528.126 231.567 528.126 230.456C528.126 229.347 527.222 228.444 526.112 228.444V225.72C528.724 225.72 530.85 227.844 530.85 230.456C530.85 233.069 528.724 235.194 526.112 235.194Z" fill="#F9C6B5"/>
<path d="M559.168 195.44C556.558 195.44 554.433 193.315 554.433 190.703H557.157C557.157 191.814 558.059 192.717 559.168 192.717C560.277 192.717 561.181 191.814 561.181 190.703C561.181 189.594 560.277 188.691 559.168 188.691V185.967C561.779 185.967 563.905 188.091 563.905 190.703C563.905 193.315 561.78 195.44 559.168 195.44Z" fill="#F9C6B5"/>
<path d="M418.351 316.176C415.742 316.176 413.617 314.051 413.617 311.439H416.34C416.34 312.549 417.242 313.453 418.351 313.453C419.461 313.453 420.365 312.549 420.365 311.439C420.365 310.329 419.461 309.426 418.351 309.426V306.703C420.963 306.703 423.089 308.826 423.089 311.439C423.089 314.051 420.963 316.176 418.351 316.176Z" fill="#F9C6B5"/>
<path d="M445.596 410.313C442.986 410.313 440.861 408.188 440.861 405.576H443.585C443.585 406.687 444.487 407.59 445.596 407.59C446.705 407.59 447.609 406.687 447.609 405.576C447.609 404.467 446.705 403.564 445.596 403.564V400.84C448.208 400.84 450.333 402.964 450.333 405.576C450.333 408.189 448.208 410.313 445.596 410.313Z" fill="#F9C6B5"/>
<path d="M418.637 232.723C416.027 232.723 413.902 230.598 413.902 227.986H416.626C416.626 229.096 417.528 229.999 418.637 229.999C419.746 229.999 420.65 229.096 420.65 227.986C420.65 226.876 419.746 225.973 418.637 225.973V223.25C421.249 223.25 423.374 225.373 423.374 227.986C423.374 230.598 421.249 232.723 418.637 232.723Z" fill="#F9C6B5"/>
<path d="M327.071 205.918C324.462 205.918 322.337 203.793 322.337 201.181H325.061C325.061 202.292 325.963 203.195 327.071 203.195C328.181 203.195 329.085 202.292 329.085 201.181C329.085 200.072 328.181 199.169 327.071 199.169V196.445C329.683 196.445 331.809 198.569 331.809 201.181C331.809 203.793 329.684 205.918 327.071 205.918Z" fill="#F9C6B5"/>
<path d="M427.02 126.13C424.41 126.13 422.285 124.005 422.285 121.393H425.009C425.009 122.504 425.911 123.407 427.02 123.407C428.128 123.407 429.033 122.504 429.033 121.393C429.033 120.284 428.129 119.38 427.02 119.38V116.657C429.631 116.657 431.757 118.781 431.757 121.393C431.757 124.005 429.631 126.13 427.02 126.13Z" fill="#F9C6B5"/>
<path d="M364.178 43.7139C361.568 43.7139 359.443 41.5883 359.443 38.9765H362.167C362.167 40.0871 363.069 40.9901 364.178 40.9901C365.287 40.9901 366.192 40.0871 366.192 38.9765C366.192 37.867 365.287 36.964 364.178 36.964V34.2402C366.79 34.2402 368.915 36.364 368.915 38.9765C368.915 41.5889 366.79 43.7139 364.178 43.7139Z" fill="#F9C6B5"/>
<path d="M331.837 84.0683C329.227 84.0683 327.103 81.9428 327.103 79.331H329.826C329.826 80.4415 330.728 81.3446 331.837 81.3446C332.946 81.3446 333.851 80.4415 333.851 79.331C333.851 78.2215 332.946 77.3184 331.837 77.3184V74.5947C334.449 74.5947 336.574 76.7185 336.574 79.331C336.574 81.9434 334.449 84.0683 331.837 84.0683Z" fill="#F9C6B5"/>
<path d="M380.051 106.378C377.442 106.378 375.317 104.253 375.317 101.641H378.041C378.041 102.752 378.943 103.655 380.051 103.655C381.161 103.655 382.065 102.752 382.065 101.641C382.065 100.532 381.161 99.6285 380.051 99.6285V96.9048C382.663 96.9048 384.789 99.0286 384.789 101.641C384.789 104.253 382.664 106.378 380.051 106.378Z" fill="#F9C6B5"/>
<path d="M442.036 394.52C439.424 394.52 437.298 392.395 437.298 389.783C437.298 387.171 439.424 385.047 442.036 385.047C444.648 385.047 446.773 387.171 446.773 389.783H444.049C444.049 388.674 443.145 387.771 442.036 387.771C440.926 387.771 440.022 388.674 440.022 389.783C440.022 390.894 440.926 391.797 442.036 391.797V394.52Z" fill="#E0E0E0"/>
<path d="M451.221 335.582C448.609 335.582 446.483 333.456 446.483 330.845C446.483 328.233 448.609 326.108 451.221 326.108C453.833 326.108 455.958 328.232 455.958 330.845H453.234C453.234 329.735 452.33 328.832 451.221 328.832C450.111 328.832 449.207 329.735 449.207 330.845C449.207 331.955 450.111 332.858 451.221 332.858V335.582Z" fill="#E0E0E0"/>
<path d="M405.093 297.291C402.481 297.291 400.355 295.165 400.355 292.553C400.355 289.941 402.481 287.817 405.093 287.817C407.705 287.817 409.83 289.941 409.83 292.553H407.107C407.107 291.444 406.202 290.541 405.093 290.541C403.983 290.541 403.079 291.444 403.079 292.553C403.079 293.664 403.983 294.567 405.093 294.567V297.291Z" fill="#E0E0E0"/>
<path d="M479.959 245.958C477.347 245.958 475.222 243.833 475.222 241.221C475.222 238.609 477.347 236.485 479.959 236.485C482.571 236.485 484.696 238.609 484.696 241.221H481.973C481.973 240.112 481.068 239.209 479.959 239.209C478.85 239.209 477.945 240.112 477.945 241.221C477.945 242.332 478.85 243.235 479.959 243.235V245.958Z" fill="#E0E0E0"/>
<path d="M525.419 260.77C522.807 260.77 520.681 258.644 520.681 256.033C520.681 253.421 522.807 251.296 525.419 251.296C528.03 251.296 530.156 253.42 530.156 256.033H527.432C527.432 254.923 526.528 254.02 525.419 254.02C524.309 254.02 523.405 254.923 523.405 256.033C523.405 257.143 524.309 258.046 525.419 258.046V260.77Z" fill="#E0E0E0"/>
<path d="M568.994 229.977C566.382 229.977 564.257 227.851 564.257 225.239C564.257 222.627 566.382 220.503 568.994 220.503C571.606 220.503 573.732 222.627 573.732 225.239H571.008C571.008 224.13 570.104 223.227 568.994 223.227C567.885 223.227 566.981 224.13 566.981 225.239C566.981 226.35 567.885 227.253 568.994 227.253V229.977Z" fill="#E0E0E0"/>
<path d="M527.664 196.656C525.052 196.656 522.926 194.531 522.926 191.919C522.926 189.307 525.052 187.183 527.664 187.183C530.276 187.183 532.401 189.306 532.401 191.919H529.677C529.677 190.809 528.773 189.906 527.664 189.906C526.554 189.906 525.65 190.809 525.65 191.919C525.65 193.029 526.554 193.933 527.664 193.933V196.656Z" fill="#E0E0E0"/>
<path d="M411.131 210.083C408.52 210.083 406.394 207.957 406.394 205.346C406.394 202.734 408.52 200.609 411.131 200.609C413.743 200.609 415.869 202.733 415.869 205.346H413.145C413.145 204.236 412.241 203.333 411.131 203.333C410.022 203.333 409.118 204.236 409.118 205.346C409.118 206.456 410.022 207.359 411.131 207.359V210.083Z" fill="#E0E0E0"/>
<path d="M340.502 188.664C337.89 188.664 335.765 186.538 335.765 183.926C335.765 181.314 337.89 179.19 340.502 179.19C343.114 179.19 345.239 181.314 345.239 183.926H342.516C342.516 182.817 341.611 181.914 340.502 181.914C339.393 181.914 338.488 182.817 338.488 183.926C338.488 185.037 339.393 185.94 340.502 185.94V188.664Z" fill="#E0E0E0"/>
<path d="M344.791 140.656C342.179 140.656 340.054 138.531 340.054 135.919C340.054 133.307 342.179 131.183 344.791 131.183C347.403 131.183 349.528 133.306 349.528 135.919H346.805C346.805 134.809 345.901 133.906 344.791 133.906C343.682 133.906 342.777 134.809 342.777 135.919C342.777 137.029 343.682 137.933 344.791 137.933V140.656Z" fill="#E0E0E0"/>
<path d="M410.804 143.419C408.192 143.419 406.067 141.293 406.067 138.682C406.067 136.07 408.192 133.945 410.804 133.945C413.416 133.945 415.542 136.069 415.542 138.682H412.818C412.818 137.572 411.914 136.669 410.804 136.669C409.695 136.669 408.791 137.572 408.791 138.682C408.791 139.792 409.695 140.695 410.804 140.695V143.419Z" fill="#E0E0E0"/>
<path d="M372.222 71.624C369.61 71.624 367.484 69.4985 367.484 66.8866C367.484 64.2748 369.61 62.1504 372.222 62.1504C374.834 62.1504 376.959 64.2742 376.959 66.8866H374.235C374.235 65.7772 373.331 64.8741 372.222 64.8741C371.112 64.8741 370.208 65.7772 370.208 66.8866C370.208 67.9972 371.112 68.9003 372.222 68.9003V71.624Z" fill="#E0E0E0"/>
<path d="M412.245 49.6299C409.633 49.6299 407.507 47.5043 407.507 44.8925C407.507 42.2806 409.633 40.1562 412.245 40.1562C414.857 40.1562 416.982 42.28 416.982 44.8925H414.258C414.258 43.783 413.354 42.88 412.245 42.88C411.135 42.88 410.231 43.783 410.231 44.8925C410.231 46.0031 411.135 46.9061 412.245 46.9061V49.6299Z" fill="#E0E0E0"/>
<path d="M346.159 16.4707C343.547 16.4707 341.421 14.3452 341.421 11.7333C341.421 9.12145 343.547 6.99707 346.159 6.99707C348.771 6.99707 350.896 9.12087 350.896 11.7333H348.172C348.172 10.6239 347.268 9.72079 346.159 9.72079C345.049 9.72079 344.145 10.6239 344.145 11.7333C344.145 12.8439 345.049 13.747 346.159 13.747V16.4707Z" fill="#E0E0E0"/>
<path d="M317.33 48.0962C314.718 48.0962 312.593 45.9706 312.593 43.3588C312.593 40.7469 314.718 38.6226 317.33 38.6226C319.942 38.6226 322.068 40.7464 322.068 43.3588H319.344C319.344 42.2494 318.44 41.3463 317.33 41.3463C316.221 41.3463 315.316 42.2494 315.316 43.3588C315.316 44.4694 316.221 45.3725 317.33 45.3725V48.0962Z" fill="#E0E0E0"/>
<path d="M262.562 235.891C259.95 235.891 257.824 233.765 257.824 231.153C257.824 228.541 259.95 226.417 262.562 226.417C265.173 226.417 267.299 228.541 267.299 231.153H264.575C264.575 230.044 263.671 229.141 262.562 229.141C261.452 229.141 260.548 230.044 260.548 231.153C260.548 232.264 261.452 233.167 262.562 233.167V235.891Z" fill="#E0E0E0"/>
<path d="M168.869 355.692C166.257 355.692 164.132 353.567 164.132 350.955C164.132 348.343 166.257 346.219 168.869 346.219C171.481 346.219 173.607 348.343 173.607 350.955H170.883C170.883 349.846 169.979 348.942 168.869 348.942C167.76 348.942 166.856 349.846 166.856 350.955C166.856 352.066 167.76 352.969 168.869 352.969V355.692Z" fill="#E0E0E0"/>
<path d="M153.02 283.004C150.408 283.004 148.282 280.879 148.282 278.267C148.282 275.655 150.408 273.531 153.02 273.531C155.631 273.531 157.757 275.655 157.757 278.267H155.033C155.033 277.158 154.129 276.254 153.02 276.254C151.91 276.254 151.006 277.158 151.006 278.267C151.006 279.378 151.91 280.281 153.02 280.281V283.004Z" fill="#E0E0E0"/>
<path d="M150.164 242.127C147.552 242.127 145.426 240.001 145.426 237.39C145.426 234.778 147.552 232.653 150.164 232.653C152.776 232.653 154.901 234.777 154.901 237.39H152.177C152.177 236.28 151.273 235.377 150.164 235.377C149.054 235.377 148.15 236.28 148.15 237.39C148.15 238.5 149.054 239.403 150.164 239.403V242.127Z" fill="#E0E0E0"/>
<path d="M123.651 318.692C121.039 318.692 118.914 316.567 118.914 313.955C118.914 311.343 121.039 309.219 123.651 309.219C126.263 309.219 128.388 311.343 128.388 313.955H125.665C125.665 312.846 124.76 311.942 123.651 311.942C122.542 311.942 121.637 312.846 121.637 313.955C121.637 315.066 122.542 315.969 123.651 315.969V318.692Z" fill="#E0E0E0"/>
<path d="M181.594 199.635C178.982 199.635 176.856 197.509 176.856 194.897C176.856 192.286 178.982 190.161 181.594 190.161C184.206 190.161 186.331 192.285 186.331 194.897H183.607C183.607 193.788 182.703 192.885 181.594 192.885C180.484 192.885 179.58 193.788 179.58 194.897C179.58 196.008 180.484 196.911 181.594 196.911V199.635Z" fill="#E0E0E0"/>
</g>
<path d="M158.889 375.204C134.095 360.962 122.257 348.386 130.285 331.938C138.314 315.491 136.686 314.44 124.78 299.827C112.875 285.213 123.044 281.975 126.314 271.108C129.584 260.24 119.79 252.183 113.224 239.576C106.657 226.969 123.752 205.418 137.807 215.363C151.862 225.308 135.599 239.32 145.876 252.881C156.153 266.442 181.281 265.944 177.201 281.192C173.12 296.439 153.576 306.601 167.728 318.628C181.881 330.655 191.412 339.119 181.302 355.663C171.191 372.207 158.889 375.204 158.889 375.204Z" fill="white"/>
<path d="M131.14 241.153C138.35 271.847 145.448 302.565 152.434 333.307C155.965 348.669 159.727 363.982 162.778 379.448C165.726 394.936 168.75 410.408 170.912 426.065L170.51 426.152C166.044 410.99 162.439 395.643 158.759 380.312C155.181 364.96 152.315 349.454 149.218 333.998C142.946 303.103 136.787 272.183 130.739 241.24L131.14 241.153Z" fill="#F48100"/>
<path d="M153.137 281.093C151.177 282.819 147.763 284.156 143.803 285.7C137.973 287.98 130.886 290.778 125.953 296.08C124.97 288.193 122.379 280.453 117.878 273.928C117.408 273.225 116.871 272.59 116.382 271.907C117.459 265.358 122.061 260.058 126.136 255.376C128.746 252.379 131.004 249.788 131.969 247.27C132.18 246.726 131.906 246.112 131.358 245.902C130.817 245.69 130.202 245.959 129.99 246.513C129.156 248.679 127.018 251.139 124.535 253.985C120.854 258.215 116.39 263.385 114.717 269.657C108.964 262.197 102.077 255.897 94.6213 250.331C94.8821 250.076 94.9934 249.686 94.8688 249.316C92.8957 243.408 94.4746 237.013 95.8652 231.368C96.7485 227.788 97.5137 224.692 97.2424 222.205C97.1856 221.667 96.6999 221.276 96.1585 221.336C95.6223 221.39 95.2293 221.873 95.289 222.42C95.5197 224.561 94.7981 227.497 93.9547 230.898C92.6441 236.218 91.0698 242.765 92.7386 248.928C89.6781 246.717 86.5446 244.617 83.3629 242.601C83.229 242.348 83.0186 242.142 82.7149 242.081C82.6384 242.066 82.5619 242.066 82.4854 242.052C79.2811 240.041 76.0514 238.085 72.8147 236.203C75.5117 238.089 78.2163 239.963 80.9082 241.853C74.8446 241.271 68.8528 243.558 63.9514 245.456C60.6852 246.725 57.8652 247.816 55.7119 247.86C55.1618 247.871 54.7334 248.322 54.7479 248.861C54.7578 249.405 55.207 249.838 55.7484 249.825C58.2495 249.777 61.2225 248.623 64.6609 247.29C70.0823 245.191 76.223 242.809 82.3352 244.012C82.7195 244.089 83.094 243.928 83.3125 243.635C83.3258 243.618 83.3282 243.591 83.3409 243.572C87.8314 246.779 92.2308 250.091 96.3272 253.772C98.0893 255.291 99.8218 256.853 101.509 258.457C95.2374 258.202 89.1275 260.694 84.0927 262.749C80.5975 264.181 77.5793 265.41 75.2596 265.5C74.6672 265.523 74.2139 266.018 74.24 266.597C74.2615 267.184 74.7536 267.641 75.3373 267.617C78.032 267.517 81.2136 266.216 84.8926 264.713C90.6942 262.345 97.2662 259.66 103.876 260.838C103.895 260.841 103.912 260.83 103.931 260.832C108.342 265.279 112.347 270.077 115.556 275.375C116.725 277.256 117.736 279.217 118.634 281.224C111.223 281.584 104.414 285.412 98.8521 288.577C95.1615 290.683 91.9735 292.494 89.3987 292.933C88.7408 293.044 88.3073 293.662 88.4209 294.305C88.5304 294.957 89.146 295.394 89.7935 295.283C92.785 294.779 96.1446 292.864 100.03 290.651C105.876 287.325 112.467 283.618 119.611 283.585C120.236 285.177 120.813 286.786 121.299 288.42C122.64 292.988 123.068 297.762 123.185 302.531C123.145 306.756 122.699 310.977 122.098 315.2C116.926 313.614 111.287 314.336 106.637 314.933C103.399 315.354 100.604 315.712 98.6457 315.272C98.1455 315.159 97.6568 315.472 97.5502 315.963C97.4377 316.458 97.7478 316.949 98.2411 317.058C100.515 317.572 103.462 317.191 106.87 316.752C111.663 316.135 117.02 315.459 121.856 317.057C121.122 321.807 120.182 326.566 119.283 331.345C118.353 336.568 117.507 341.849 116.895 347.168C113.61 344.84 109.548 343.794 106.149 342.94C103.614 342.307 101.428 341.756 100.098 340.857C99.758 340.626 99.303 340.716 99.0799 341.051C98.8515 341.387 98.939 341.843 99.274 342.069C100.817 343.116 103.123 343.694 105.79 344.362C109.485 345.29 113.61 346.327 116.73 348.848C116.315 352.822 116.013 356.813 115.992 360.827C115.899 370.765 117.04 380.757 119.694 390.326C124.841 409.573 134.959 426.922 146.656 442.612C141.516 434.251 136.272 425.957 132.272 417.032C128.053 408.246 124.481 399.122 122.334 389.656C120.156 380.215 118.979 370.561 119.223 360.882C119.225 360.734 119.243 360.585 119.245 360.436C119.351 360.407 119.456 360.373 119.543 360.295C123.008 357.202 127.853 356.398 132.129 355.687C134.841 355.236 137.186 354.848 138.809 353.929C139.161 353.731 139.286 353.283 139.085 352.93C138.89 352.579 138.444 352.452 138.087 352.654C136.688 353.443 134.464 353.814 131.887 354.24C127.914 354.901 123.048 355.74 119.338 358.6C119.681 349.689 121.102 340.834 122.778 331.981C122.851 331.568 122.926 331.151 122.999 330.738C128.143 328.689 133.947 329.487 139.101 330.219C142.503 330.704 145.445 331.124 147.725 330.64C148.22 330.537 148.536 330.05 148.43 329.554C148.33 329.062 147.845 328.743 147.344 328.849C145.38 329.263 142.59 328.867 139.358 328.404C134.559 327.722 128.709 326.913 123.371 328.648C124.906 320.103 126.428 311.425 126.421 302.511C126.406 301.47 126.347 300.426 126.277 299.381C130.759 293.367 138.145 290.473 144.672 287.92C148.837 286.292 152.439 284.886 154.714 282.878C155.207 282.445 155.255 281.691 154.817 281.196C154.391 280.704 153.637 280.652 153.137 281.093Z" fill="#E6E9F8"/>
<path d="M92.4427 240.909C92.0329 241.335 91.2996 241.147 91.1084 240.589C86.6446 227.526 92.7725 222.699 92.6519 215.64C92.5453 209.409 97.176 222.895 100.838 225.965C103.907 228.538 95.3038 237.938 92.4427 240.909Z" fill="#E0E0E0"/>
<path d="M120.415 262.077C119.813 262.283 119.202 261.742 119.294 261.112C121.448 246.39 129.701 244.781 133.062 237.953C136.029 231.926 133.826 247.137 135.825 251.884C137.5 255.862 124.622 260.637 120.415 262.077Z" fill="#E0E0E0"/>
<path d="M135.481 291.622C134.772 291.513 134.445 290.656 134.866 290.076C144.687 276.521 153.754 279.218 160.665 274.162C166.764 269.7 156.639 283.717 156.157 289.492C155.753 294.332 140.424 292.379 135.481 291.622Z" fill="#E0E0E0"/>
<path d="M131.558 329.222C131.125 328.882 131.23 328.185 131.731 327.955C143.425 322.596 148.473 327.828 155.007 327.056C160.775 326.374 148.703 331.928 146.199 335.609C144.099 338.696 134.58 331.597 131.558 329.222Z" fill="#E0E0E0"/>
<path d="M126.135 356.748C125.723 356.593 125.635 356.036 125.961 355.74C133.591 348.833 138.703 351.607 143.502 349.443C147.738 347.533 139.867 354.68 138.844 358.092C137.987 360.953 129.013 357.832 126.135 356.748Z" fill="#E0E0E0"/>
<path d="M72.3142 244.413C72.684 243.952 72.4046 243.249 71.8261 243.131C58.3014 240.369 54.2955 247.064 47.2778 247.844C41.0838 248.533 55.0508 251.406 58.5628 254.645C61.5074 257.362 69.7325 247.63 72.3142 244.413Z" fill="#E0E0E0"/>
<path d="M93.0811 261.467C93.4706 260.963 93.1564 260.211 92.5304 260.094C77.9015 257.38 73.7142 264.672 66.1667 265.649C59.5049 266.511 74.6126 269.337 78.4603 272.761C81.6854 275.631 90.3608 264.984 93.0811 261.467Z" fill="#E0E0E0"/>
<path d="M108.695 285.836C109.056 285.217 108.596 284.423 107.881 284.385C91.1658 283.489 87.5564 292.233 79.2791 294.423C71.9734 296.355 89.2385 297.306 94.0292 300.565C98.0455 303.297 106.173 290.155 108.695 285.836Z" fill="#E0E0E0"/>
<path d="M114.443 315.853C114.88 315.519 114.784 314.82 114.287 314.584C102.664 309.071 97.5478 314.235 91.024 313.377C85.2659 312.619 97.2632 318.332 99.7186 322.047C101.778 325.161 111.39 318.188 114.443 315.853Z" fill="#E0E0E0"/>
<path d="M111.689 345.905C112.113 345.784 112.246 345.235 111.944 344.914C104.9 337.411 99.5795 339.761 94.972 337.215C90.9047 334.968 98.1704 342.73 98.9135 346.214C99.5361 349.135 108.733 346.751 111.689 345.905Z" fill="#E0E0E0"/>
<path d="M77.1994 238.273C77.3351 238.79 76.8447 239.267 76.323 239.151C64.1361 236.442 63.298 229.436 57.7914 226.202C52.9311 223.348 65.5243 226.129 69.6195 224.75C73.0527 223.593 76.254 234.664 77.1994 238.273Z" fill="#E0E0E0"/>
<path d="M85.9141 330.329C85.2904 332.242 83.5503 334.468 81.5286 337.044C78.5556 340.843 74.9508 345.479 73.7573 350.93C70.0129 346.084 65.2587 341.965 59.7138 339.401C59.1267 339.119 58.521 338.908 57.9286 338.647C56.0749 333.881 57.0493 328.56 57.9164 323.856C58.4728 320.845 58.9545 318.24 58.6073 316.191C58.5337 315.747 58.1117 315.448 57.6654 315.523C57.2237 315.595 56.9217 316.014 56.9977 316.465C57.2944 318.229 56.8406 320.7 56.3091 323.561C55.526 327.811 54.5916 332.991 55.9416 337.808C49.1998 335.115 42.1601 333.636 35.0317 332.868C35.1047 332.597 35.0259 332.294 34.7981 332.098C31.1719 328.952 29.7117 324.091 28.4209 319.801C27.603 317.079 26.8964 314.725 25.7412 313.182C25.4925 312.847 25.0172 312.778 24.6811 313.03C24.3466 313.277 24.2753 313.751 24.5292 314.091C25.5215 315.421 26.1945 317.651 26.9689 320.239C28.1856 324.281 29.7083 329.242 33.2325 332.676C30.3354 332.41 27.4332 332.245 24.5321 332.156C24.3437 332.04 24.1234 331.986 23.898 332.065C23.8412 332.085 23.7907 332.115 23.7345 332.136C20.8201 332.058 17.9109 332.027 15.0254 332.048C17.5544 332.242 20.0834 332.425 22.6094 332.622C18.3589 334.614 15.2805 338.481 12.7735 341.662C11.1048 343.785 9.66145 345.614 8.25061 346.488C7.89007 346.71 7.78284 347.178 8.00368 347.53C8.22395 347.888 8.69113 347.998 9.04587 347.777C10.6863 346.764 12.2061 344.833 13.9641 342.601C16.7371 339.082 19.877 335.094 24.4034 333.496C24.688 333.395 24.8735 333.142 24.9042 332.862C24.906 332.845 24.8973 332.827 24.8984 332.809C29.1344 333.176 33.3525 333.648 37.5125 334.483C39.2775 334.8 41.039 335.156 42.7872 335.559C38.5269 337.85 35.4507 341.899 32.9166 345.236C31.1591 347.557 29.6393 349.556 28.1357 350.525C27.7514 350.772 27.6447 351.278 27.8894 351.653C28.1334 352.034 28.6394 352.144 29.0173 351.899C30.7655 350.776 32.3659 348.665 34.2173 346.226C37.1375 342.38 40.4443 338.021 45.2913 336.211C45.3052 336.206 45.3116 336.191 45.3255 336.185C49.9945 337.405 54.5336 339.018 58.7395 341.274C60.2523 342.064 61.6922 342.968 63.0758 343.948C58.3007 347.092 55.2843 352.303 52.8359 356.583C51.2134 359.428 49.809 361.879 48.2729 363.179C47.8799 363.511 47.8347 364.091 48.1628 364.473C48.4909 364.862 49.0711 364.911 49.4566 364.583C51.243 363.075 52.7211 360.488 54.431 357.496C57.0046 352.997 59.9231 347.954 64.6495 345.13C65.6882 345.941 66.702 346.782 67.6642 347.675C70.3456 350.179 72.5018 353.179 74.4494 356.297C76.0794 359.116 77.4386 362.09 78.6964 365.128C74.643 366.104 71.1855 368.795 68.3354 371.014C66.3519 372.563 64.6385 373.897 63.1673 374.372C62.7912 374.494 62.59 374.893 62.7112 375.26C62.8306 375.633 63.2294 375.837 63.5992 375.716C65.3091 375.165 67.1147 373.757 69.2031 372.129C72.1407 369.84 75.4296 367.291 79.2639 366.454C80.64 369.894 81.8821 373.419 83.1597 376.942C84.5914 380.772 86.1007 384.607 87.7805 388.375C84.6888 388.119 81.5836 389.018 78.9938 389.784C77.0642 390.358 75.3983 390.85 74.1631 390.774C73.8472 390.755 73.5806 390.994 73.5637 391.303C73.544 391.615 73.7811 391.883 74.0918 391.902C75.5264 391.992 77.2827 391.471 79.3143 390.868C82.1296 390.035 85.2724 389.106 88.3306 389.554C89.6139 392.353 90.9784 395.119 92.5382 397.79C96.3737 404.42 101.049 410.6 106.561 415.908C117.524 426.658 131.04 434.199 144.951 440.021C138.263 436.489 131.532 433.044 125.378 428.692C119.134 424.518 113.187 419.865 108.051 414.428C102.903 409.019 98.3369 403.076 94.7038 396.56C94.6469 396.461 94.6 396.356 94.5438 396.256C94.6023 396.195 94.6585 396.131 94.6858 396.045C95.7714 392.635 98.6702 390.202 101.228 388.053C102.851 386.691 104.254 385.513 104.97 384.267C105.126 383.997 105.033 383.652 104.762 383.496C104.494 383.339 104.148 383.43 103.991 383.705C103.372 384.776 102.043 385.894 100.5 387.188C98.123 389.184 95.2243 391.649 93.8847 395.001C90.6179 388.955 88.0883 382.524 85.7286 375.994C85.6156 375.691 85.5008 375.385 85.3884 375.082C87.9973 371.706 92.1609 369.959 95.8671 368.424C98.3137 367.411 100.431 366.536 101.753 365.321C102.041 365.059 102.06 364.611 101.795 364.324C101.536 364.037 101.089 364.015 100.798 364.282C99.6573 365.327 97.6518 366.158 95.3257 367.119C91.8745 368.548 87.6768 370.306 84.8169 373.55C82.4838 367.279 80.0905 360.925 76.5906 355.015C76.1721 354.33 75.7235 353.66 75.2673 352.995C75.8829 347.248 79.6476 342.432 82.9765 338.179C85.1015 335.465 86.9395 333.12 87.6611 330.897C87.8188 330.416 87.5545 329.897 87.0705 329.74C86.5934 329.579 86.0729 329.839 85.9141 330.329Z" fill="#E6E9F8"/>
<path d="M29.8801 327.473C29.7752 327.916 29.2153 328.079 28.8693 327.783C20.7856 320.869 22.9581 315.263 20.1098 310.627C17.5953 306.536 25.956 313.666 29.5886 314.267C32.6346 314.771 30.6134 324.38 29.8801 327.473Z" fill="#E0E0E0"/>
<path d="M56.7431 330.539C56.4243 330.912 55.8069 330.793 55.6209 330.339C51.2765 319.729 56.12 315.425 55.6719 309.577C55.2766 304.416 59.7804 315.37 62.9672 317.735C65.6399 319.718 58.9689 327.935 56.7431 330.539Z" fill="#E0E0E0"/>
<path d="M78.3248 344.228C77.8124 344.434 77.2594 343.994 77.3104 343.444C78.5103 330.6 85.583 328.834 88.1844 322.771C90.481 317.419 89.2608 330.688 91.2055 334.707C92.836 338.077 81.9017 342.793 78.3248 344.228Z" fill="#E0E0E0"/>
<path d="M90.4615 370.715C90.0407 370.659 89.8372 370.155 90.0795 369.806C95.7356 361.666 101.136 363.156 105.168 360.082C108.727 357.369 102.896 365.786 102.679 369.211C102.496 372.082 93.3974 371.105 90.4615 370.715Z" fill="#E0E0E0"/>
<path d="M97.6606 391.103C97.3261 391.161 97.0491 390.826 97.1499 390.502C99.5027 382.928 103.982 382.763 106.317 379.446C108.378 376.518 105.959 384.346 106.618 387.01C107.171 389.245 99.9948 390.693 97.6606 391.103Z" fill="#E0E0E0"/>
<path d="M17.9033 337.688C17.9682 337.238 17.5068 336.88 17.0767 337.029C7.02173 340.501 6.98927 346.513 2.64024 349.783C-1.19871 352.669 9.19363 349.097 12.7938 349.87C15.8119 350.516 17.4517 340.835 17.9033 337.688Z" fill="#E0E0E0"/>
<path d="M38.366 340.848C38.4269 340.361 37.9232 339.985 37.4624 340.154C26.6932 344.09 26.775 350.569 22.1512 354.177C18.07 357.361 29.2002 353.312 33.0954 354.074C36.3605 354.713 37.9406 344.247 38.366 340.848Z" fill="#E0E0E0"/>
<path d="M58.2805 350.898C58.2776 350.346 57.6609 350 57.1711 350.255C45.7313 356.216 46.766 363.432 42.1329 368.13C38.0442 372.278 49.8705 366.137 54.3268 366.421C58.0632 366.658 58.3008 354.753 58.2805 350.898Z" fill="#E0E0E0"/>
<path d="M73.8682 368.562C74.027 368.169 73.6896 367.743 73.2671 367.782C63.3952 368.682 62.0256 374.114 57.3618 376.103C53.2452 377.859 63.4439 376.943 66.5293 378.445C69.1163 379.703 72.7587 371.309 73.8682 368.562Z" fill="#E0E0E0"/>
<path d="M83.8231 389.571C84.0567 389.325 83.9298 388.908 83.6035 388.814C75.9882 386.598 73.3804 390.244 69.3252 390.362C65.7459 390.466 73.6093 392.766 75.4688 394.786C77.0269 396.479 82.1938 391.292 83.8231 389.571Z" fill="#E0E0E0"/>
<path d="M18.7367 331.696C19.0294 331.986 18.8915 332.495 18.5002 332.623C9.35296 335.604 6.0496 331.285 1.12847 331.299C-3.21534 331.312 6.22987 328.219 8.40525 325.697C10.2294 323.584 16.6947 329.672 18.7367 331.696Z" fill="#E0E0E0"/>
<path fill-rule="evenodd" clip-rule="evenodd" d="M184.308 397.494C187.596 392.803 190.069 389.274 193.065 393.857C199.119 403.116 193.777 418.074 181.49 420.747C175.741 421.997 173.674 428.121 171.483 434.613C168.992 441.993 166.341 449.847 157.936 451.553C148.979 453.37 145.147 450.561 139.905 446.717C134.241 442.565 126.93 437.205 109.729 435.171C90.8534 431.253 90.497 414.87 104.03 418.432C106.878 419.181 109.82 420.122 112.658 421.03C123.307 424.437 132.484 427.374 129.672 417.929C126.111 405.967 115.071 396.351 88.0045 393.858C60.9383 391.365 47.0484 371.777 59.5135 366.435C71.9787 361.093 92.6347 374.627 109.373 386.023C126.111 397.419 136.083 387.804 123.975 377.476C119.466 373.63 113.475 370.772 107.089 367.724L107.089 367.724C96.3235 362.588 84.4318 356.914 76.6082 345.067C64.1431 326.191 68.0609 320.137 80.5254 317.644C92.99 315.151 121.125 341.149 127.179 356.819C133.234 372.489 143.562 376.05 140.713 365.01C140.015 362.304 138.91 359.128 137.771 355.854L137.771 355.854L137.771 355.854C134.263 345.766 130.43 334.746 137.152 333.67C146.055 332.246 151.753 347.203 148.904 353.97C146.055 360.736 144.631 366.079 154.246 368.928C159.14 370.378 161.543 363.064 163.756 356.33C165.891 349.833 167.849 343.874 171.697 346.847C179.532 352.901 183.45 378.543 171.697 381.392C159.944 384.241 157.451 407.746 170.272 408.103C176.748 408.282 180.953 402.283 184.308 397.494ZM166.389 365.864C166.389 365.864 163.517 370.071 162.783 373.209C162.048 376.347 167.591 374.144 171.865 372.007C176.138 369.87 175.07 363.994 173.601 359.587C172.131 355.18 169.995 358.919 166.389 365.864ZM92.3975 345.299C83.3157 342.896 80.9119 337.82 80.1109 330.876C79.5875 326.338 79.634 326.362 82.4861 327.817C83.999 328.59 86.3012 329.765 89.7265 330.876C96.4787 333.066 97.1214 336.627 97.8733 340.793C98.2219 342.725 98.594 344.787 99.6094 346.902C102.815 353.58 92.3975 345.299 92.3975 345.299ZM61.9491 376.105C64.2636 378.954 70.318 383.405 75.304 383.227C77.5996 383.145 80.1027 383.516 82.1444 383.819C84.5372 384.174 86.2962 384.434 86.3444 383.762C86.4331 382.515 76.9067 376.105 76.9067 376.105C69.0717 370.763 59.6341 373.256 61.9491 376.105ZM118.041 431.3C115.726 432.725 110.562 431.656 103.795 428.272C97.0284 424.889 106.002 423.874 113.233 426.848C117.057 428.421 120.355 429.875 118.041 431.3ZM141.906 339.6C137.633 338.175 136.676 342.159 138.279 345.565C139.856 348.916 141.842 350.414 141.905 350.461L141.906 350.462C145.29 344.764 146.18 341.024 141.906 339.6ZM151.693 431.92C144.921 431.92 143.502 418.841 143.502 418.841C143.58 414.393 141.265 411.381 139.028 408.472C136.16 404.743 133.422 401.182 136.023 394.979C140.653 383.939 146.996 376.091 147.42 388.925C147.447 389.765 147.466 390.583 147.484 391.38C147.698 400.879 147.846 407.411 162.712 413.498C174.889 418.484 158.638 431.92 151.693 431.92ZM185.485 405.798C179.475 412.876 185.752 411.407 189.492 409.805C193.231 408.202 192.43 403.795 191.361 400.456C190.654 398.246 189.853 399.483 188.369 401.778C187.612 402.949 186.677 404.395 185.485 405.798Z" fill="#FFEDB7"/>
<path d="M438.268 397.814C453.968 388.795 461.465 380.831 456.381 370.416C451.297 360.001 452.328 359.335 459.867 350.081C467.405 340.827 460.966 338.776 458.896 331.895C456.825 325.013 463.027 319.911 467.185 311.927C471.343 303.944 460.519 290.296 451.618 296.594C442.717 302.892 453.015 311.765 446.508 320.352C440 328.94 424.088 328.625 426.672 338.28C429.256 347.935 441.632 354.37 432.67 361.987C423.708 369.602 417.672 374.962 424.075 385.439C430.477 395.916 438.268 397.814 438.268 397.814Z" fill="white"/>
<path d="M455.838 312.926C451.272 332.363 446.778 351.814 442.354 371.282C440.118 381.011 437.735 390.708 435.803 400.501C433.937 410.309 432.021 420.106 430.652 430.022L430.907 430.076C433.735 420.475 436.017 410.757 438.349 401.048C440.615 391.326 442.429 381.507 444.39 371.72C448.362 352.155 452.262 332.576 456.092 312.98L455.838 312.926Z" fill="#A3A5B1"/>
<path d="M441.914 338.207C443.156 339.3 445.317 340.147 447.825 341.124C451.517 342.568 456.005 344.34 459.128 347.697C459.751 342.703 461.392 337.802 464.242 333.669C464.54 333.225 464.88 332.822 465.19 332.39C464.507 328.243 461.594 324.886 459.013 321.921C457.36 320.024 455.93 318.383 455.319 316.788C455.186 316.443 455.358 316.055 455.706 315.922C456.048 315.788 456.437 315.959 456.572 316.309C457.1 317.681 458.453 319.238 460.026 321.04C462.356 323.719 465.184 326.993 466.243 330.965C469.886 326.241 474.247 322.251 478.968 318.726C478.803 318.565 478.733 318.318 478.811 318.084C480.061 314.342 479.061 310.293 478.18 306.718C477.621 304.451 477.136 302.491 477.308 300.916C477.344 300.575 477.651 300.327 477.994 300.365C478.333 300.399 478.582 300.705 478.545 301.051C478.398 302.407 478.856 304.267 479.39 306.421C480.22 309.789 481.217 313.935 480.159 317.838C482.097 316.438 484.082 315.108 486.097 313.832C486.181 313.671 486.315 313.541 486.507 313.502C486.556 313.493 486.604 313.492 486.653 313.483C488.682 312.21 490.727 310.971 492.776 309.78C491.069 310.975 489.356 312.161 487.651 313.357C491.491 312.988 495.286 314.437 498.389 315.639C500.457 316.443 502.243 317.133 503.607 317.161C503.955 317.168 504.227 317.454 504.217 317.795C504.211 318.14 503.926 318.414 503.584 318.406C502 318.375 500.118 317.645 497.94 316.801C494.507 315.471 490.618 313.963 486.748 314.725C486.504 314.773 486.267 314.671 486.129 314.486C486.12 314.475 486.119 314.458 486.111 314.446C483.267 316.477 480.481 318.574 477.887 320.905C476.771 321.867 475.674 322.856 474.606 323.872C478.578 323.711 482.447 325.289 485.635 326.59C487.848 327.496 489.759 328.275 491.228 328.332C491.603 328.345 491.891 328.659 491.874 329.026C491.861 329.398 491.549 329.687 491.179 329.672C489.472 329.608 487.458 328.785 485.128 327.833C481.454 326.333 477.293 324.633 473.106 325.379C473.094 325.382 473.084 325.374 473.072 325.375C470.279 328.191 467.742 331.229 465.711 334.584C464.971 335.775 464.33 337.017 463.761 338.288C468.454 338.515 472.767 340.94 476.288 342.944C478.625 344.277 480.644 345.424 482.275 345.702C482.691 345.772 482.965 346.164 482.894 346.572C482.824 346.984 482.435 347.261 482.024 347.191C480.13 346.871 478.003 345.659 475.541 344.257C471.84 342.151 467.666 339.804 463.142 339.783C462.747 340.791 462.381 341.809 462.074 342.844C461.224 345.737 460.954 348.76 460.88 351.78C460.905 354.456 461.188 357.129 461.568 359.803C464.844 358.798 468.414 359.256 471.358 359.634C473.409 359.901 475.179 360.128 476.418 359.849C476.735 359.778 477.044 359.976 477.112 360.287C477.184 360.601 476.987 360.911 476.675 360.981C475.235 361.307 473.368 361.065 471.21 360.787C468.175 360.396 464.783 359.968 461.721 360.98C462.185 363.988 462.781 367.001 463.35 370.028C463.939 373.335 464.474 376.679 464.862 380.047C466.942 378.573 469.514 377.911 471.667 377.37C473.272 376.969 474.656 376.621 475.498 376.051C475.713 375.905 476.001 375.962 476.143 376.174C476.287 376.386 476.232 376.675 476.02 376.818C475.042 377.481 473.582 377.848 471.893 378.271C469.553 378.859 466.941 379.515 464.966 381.112C465.229 383.628 465.42 386.156 465.433 388.697C465.492 394.991 464.769 401.318 463.089 407.378C459.829 419.566 453.422 430.552 446.015 440.487C449.27 435.192 452.591 429.94 455.124 424.288C457.796 418.725 460.058 412.947 461.417 406.953C462.796 400.974 463.542 394.861 463.387 388.732C463.385 388.638 463.375 388.544 463.373 388.449C463.306 388.431 463.239 388.409 463.184 388.36C460.99 386.401 457.922 385.892 455.215 385.442C453.497 385.157 452.012 384.911 450.984 384.329C450.761 384.203 450.682 383.92 450.809 383.696C450.932 383.474 451.215 383.394 451.441 383.522C452.327 384.021 453.735 384.257 455.367 384.526C457.883 384.944 460.965 385.476 463.314 387.287C463.097 381.644 462.196 376.036 461.136 370.43C461.089 370.169 461.042 369.904 460.995 369.643C457.738 368.345 454.062 368.851 450.799 369.315C448.644 369.622 446.782 369.888 445.338 369.581C445.025 369.516 444.824 369.208 444.891 368.893C444.955 368.582 445.262 368.38 445.579 368.447C446.823 368.709 448.589 368.459 450.637 368.165C453.676 367.734 457.38 367.222 460.76 368.32C459.789 362.909 458.825 357.413 458.829 351.769C458.839 351.11 458.876 350.448 458.92 349.787C456.082 345.979 451.405 344.146 447.271 342.53C444.634 341.499 442.353 340.608 440.913 339.337C440.6 339.063 440.57 338.585 440.847 338.272C441.12 337.96 441.598 337.928 441.914 338.207Z" fill="#E6E9F8"/>
<path d="M480.345 312.761C480.604 313.03 481.069 312.911 481.189 312.558C484.016 304.286 480.135 301.229 480.212 296.759C480.28 292.814 477.347 301.353 475.028 303.298C473.085 304.927 478.533 310.879 480.345 312.761Z" fill="#E0E0E0"/>
<path d="M462.629 326.168C463.01 326.299 463.397 325.957 463.339 325.558C461.975 316.235 456.749 315.216 454.62 310.892C452.742 307.075 454.136 316.708 452.871 319.713C451.81 322.234 459.965 325.257 462.629 326.168Z" fill="#E0E0E0"/>
<path d="M453.091 344.874C453.54 344.805 453.747 344.262 453.481 343.895C447.261 335.311 441.52 337.019 437.143 333.818C433.281 330.992 439.693 339.869 439.998 343.525C440.254 346.59 449.96 345.353 453.091 344.874Z" fill="#E0E0E0"/>
<path d="M455.579 368.686C455.853 368.47 455.787 368.029 455.469 367.884C448.064 364.49 444.868 367.803 440.73 367.314C437.078 366.883 444.722 370.4 446.308 372.731C447.638 374.685 453.666 370.19 455.579 368.686Z" fill="#E0E0E0"/>
<path d="M459.011 386.112C459.272 386.014 459.328 385.661 459.122 385.474C454.29 381.1 451.053 382.857 448.014 381.486C445.331 380.277 450.316 384.802 450.964 386.963C451.506 388.775 457.189 386.799 459.011 386.112Z" fill="#E0E0E0"/>
<path d="M493.097 314.978C492.862 314.686 493.039 314.24 493.406 314.166C501.97 312.417 504.507 316.656 508.951 317.15C512.873 317.587 504.029 319.406 501.805 321.458C499.94 323.177 494.731 317.015 493.097 314.978Z" fill="#E0E0E0"/>
<path d="M479.945 325.781C479.698 325.462 479.897 324.985 480.294 324.912C489.558 323.193 492.209 327.811 496.989 328.429C501.207 328.975 491.64 330.764 489.204 332.932C487.161 334.75 481.667 328.008 479.945 325.781Z" fill="#E0E0E0"/>
<path d="M470.052 341.21C469.823 340.818 470.114 340.315 470.567 340.291C481.152 339.724 483.438 345.261 488.679 346.647C493.306 347.871 482.372 348.473 479.339 350.537C476.795 352.268 471.648 343.945 470.052 341.21Z" fill="#E0E0E0"/>
<path d="M466.424 360.222C466.147 360.01 466.208 359.567 466.522 359.418C473.882 355.927 477.122 359.197 481.253 358.654C484.9 358.174 477.302 361.792 475.747 364.144C474.444 366.116 468.357 361.7 466.424 360.222Z" fill="#E0E0E0"/>
<path d="M468.154 379.248C467.886 379.172 467.802 378.824 467.993 378.621C472.454 373.87 475.823 375.358 478.741 373.746C481.316 372.323 476.715 377.238 476.245 379.444C475.85 381.294 470.026 379.785 468.154 379.248Z" fill="#E0E0E0"/>
<path d="M489.997 311.084C489.912 311.411 490.222 311.714 490.552 311.64C498.269 309.924 498.8 305.488 502.287 303.44C505.365 301.633 497.391 303.394 494.797 302.52C492.623 301.788 490.596 308.799 489.997 311.084Z" fill="#E0E0E0"/>
<path d="M484.484 369.394C484.879 370.606 485.981 372.015 487.261 373.646C489.144 376.052 491.426 378.987 492.182 382.44C494.553 379.37 497.564 376.763 501.075 375.139C501.447 374.96 501.83 374.827 502.205 374.661C503.379 371.643 502.762 368.274 502.213 365.295C501.86 363.387 501.555 361.738 501.775 360.441C501.822 360.16 502.089 359.97 502.372 360.018C502.651 360.063 502.843 360.329 502.795 360.614C502.607 361.731 502.894 363.296 503.231 365.108C503.727 367.798 504.318 371.079 503.463 374.13C507.732 372.425 512.19 371.488 516.704 371.001C516.658 370.829 516.708 370.637 516.852 370.513C519.148 368.521 520.073 365.443 520.891 362.726C521.408 361.003 521.856 359.512 522.587 358.535C522.745 358.322 523.046 358.279 523.258 358.438C523.47 358.594 523.515 358.895 523.355 359.11C522.726 359.952 522.3 361.364 521.809 363.003C521.039 365.563 520.074 368.704 517.843 370.879C519.677 370.711 521.515 370.607 523.352 370.55C523.472 370.476 523.611 370.442 523.754 370.492C523.79 370.505 523.822 370.524 523.858 370.537C525.703 370.487 527.546 370.468 529.372 370.481C527.771 370.604 526.169 370.719 524.569 370.844C527.261 372.106 529.211 374.554 530.798 376.569C531.854 377.913 532.768 379.072 533.662 379.625C533.89 379.766 533.958 380.062 533.818 380.286C533.679 380.512 533.383 380.582 533.159 380.442C532.12 379.801 531.157 378.578 530.044 377.164C528.288 374.936 526.3 372.411 523.433 371.399C523.253 371.335 523.135 371.174 523.116 370.997C523.115 370.986 523.12 370.975 523.12 370.964C520.438 371.196 517.767 371.495 515.132 372.023C514.015 372.224 512.9 372.45 511.792 372.705C514.49 374.156 516.438 376.72 518.042 378.833C519.155 380.302 520.117 381.568 521.07 382.182C521.313 382.339 521.38 382.659 521.226 382.896C521.071 383.137 520.751 383.207 520.511 383.052C519.404 382.341 518.391 381.004 517.218 379.46C515.369 377.024 513.275 374.264 510.206 373.118C510.197 373.114 510.193 373.106 510.185 373.102C507.228 373.874 504.353 374.896 501.69 376.324C500.732 376.824 499.82 377.397 498.944 378.017C501.968 380.008 503.878 383.308 505.429 386.018C506.456 387.82 507.346 389.372 508.318 390.196C508.567 390.405 508.596 390.773 508.388 391.015C508.181 391.262 507.813 391.293 507.569 391.085C506.437 390.131 505.501 388.492 504.418 386.597C502.789 383.749 500.94 380.555 497.947 378.767C497.289 379.28 496.648 379.813 496.038 380.379C494.34 381.965 492.975 383.864 491.741 385.839C490.709 387.624 489.848 389.507 489.052 391.431C491.618 392.049 493.808 393.752 495.612 395.158C496.869 396.139 497.954 396.983 498.885 397.285C499.123 397.362 499.251 397.614 499.174 397.847C499.098 398.083 498.846 398.212 498.612 398.136C497.529 397.787 496.385 396.895 495.063 395.864C493.203 394.415 491.12 392.801 488.692 392.271C487.82 394.449 487.034 396.681 486.225 398.912C485.318 401.337 484.362 403.766 483.299 406.152C485.257 405.99 487.223 406.559 488.863 407.045C490.085 407.408 491.14 407.72 491.922 407.672C492.122 407.66 492.291 407.81 492.302 408.006C492.315 408.204 492.165 408.374 491.968 408.386C491.059 408.443 489.947 408.113 488.661 407.731C486.878 407.204 484.888 406.615 482.951 406.899C482.139 408.672 481.275 410.423 480.287 412.115C477.858 416.313 474.897 420.227 471.407 423.588C464.465 430.395 455.906 435.171 447.097 438.857C451.332 436.621 455.595 434.439 459.492 431.683C463.445 429.04 467.212 426.094 470.464 422.651C473.724 419.226 476.615 415.463 478.916 411.336C478.952 411.273 478.981 411.206 479.017 411.143C478.98 411.105 478.944 411.064 478.928 411.01C478.24 408.85 476.404 407.309 474.785 405.949C473.757 405.087 472.869 404.341 472.415 403.552C472.316 403.381 472.375 403.162 472.547 403.064C472.716 402.965 472.935 403.022 473.035 403.196C473.427 403.875 474.268 404.583 475.246 405.401C476.75 406.666 478.586 408.226 479.435 410.349C481.503 406.521 483.105 402.448 484.599 398.313C484.671 398.122 484.744 397.927 484.815 397.736C483.163 395.597 480.526 394.491 478.179 393.519C476.63 392.878 475.29 392.324 474.452 391.554C474.27 391.389 474.257 391.105 474.425 390.923C474.589 390.742 474.872 390.728 475.056 390.897C475.778 391.558 477.048 392.085 478.522 392.693C480.707 393.599 483.366 394.712 485.177 396.766C486.654 392.795 488.17 388.771 490.386 385.029C490.651 384.595 490.935 384.171 491.224 383.75C490.834 380.111 488.45 377.061 486.342 374.367C484.997 372.649 483.833 371.164 483.376 369.756C483.275 369.452 483.443 369.123 483.75 369.023C484.054 368.918 484.383 369.083 484.484 369.394Z" fill="#E6E9F8"/>
<path d="M519.964 367.58C520.031 367.86 520.385 367.964 520.604 367.776C525.723 363.398 524.348 359.848 526.151 356.912C527.744 354.321 522.449 358.837 520.149 359.217C518.22 359.536 519.5 365.621 519.964 367.58Z" fill="#E0E0E0"/>
<path d="M502.958 369.528C503.16 369.765 503.551 369.689 503.669 369.401C506.42 362.682 503.353 359.957 503.636 356.254C503.887 352.985 501.035 359.922 499.016 361.42C497.324 362.676 501.548 367.879 502.958 369.528Z" fill="#E0E0E0"/>
<path d="M489.286 378.201C489.611 378.332 489.961 378.053 489.929 377.704C489.169 369.571 484.69 368.453 483.042 364.613C481.588 361.224 482.361 369.627 481.13 372.172C480.097 374.306 487.022 377.292 489.286 378.201Z" fill="#E0E0E0"/>
<path d="M481.599 394.969C481.865 394.934 481.994 394.614 481.841 394.394C478.259 389.239 474.839 390.183 472.286 388.236C470.033 386.518 473.725 391.848 473.863 394.017C473.978 395.835 479.74 395.217 481.599 394.969Z" fill="#E0E0E0"/>
<path d="M477.046 407.879C477.258 407.916 477.433 407.704 477.37 407.499C475.88 402.702 473.043 402.598 471.564 400.497C470.259 398.643 471.791 403.6 471.374 405.287C471.024 406.702 475.568 407.619 477.046 407.879Z" fill="#E0E0E0"/>
<path d="M527.55 374.053C527.509 373.768 527.801 373.541 528.073 373.636C534.441 375.834 534.461 379.641 537.215 381.711C539.646 383.539 533.066 381.277 530.785 381.766C528.874 382.177 527.836 376.045 527.55 374.053Z" fill="#E0E0E0"/>
<path d="M514.595 376.057C514.556 375.748 514.875 375.51 515.167 375.617C521.986 378.109 521.934 382.212 524.862 384.497C527.447 386.513 520.398 383.948 517.932 384.431C515.865 384.837 514.863 378.209 514.595 376.057Z" fill="#E0E0E0"/>
<path d="M501.984 382.417C501.985 382.068 502.376 381.849 502.686 382.01C509.93 385.784 509.275 390.354 512.209 393.329C514.798 395.955 507.309 392.067 504.487 392.246C502.122 392.398 501.971 384.858 501.984 382.417Z" fill="#E0E0E0"/>
<path d="M492.12 393.606C492.019 393.357 492.233 393.088 492.5 393.112C498.752 393.682 499.619 397.122 502.573 398.381C505.18 399.493 498.721 398.913 496.767 399.864C495.129 400.661 492.822 395.345 492.12 393.606Z" fill="#E0E0E0"/>
<path d="M485.799 406.914C485.651 406.758 485.732 406.494 485.938 406.434C490.761 405.032 492.412 407.34 494.98 407.414C497.247 407.48 492.267 408.937 491.09 410.216C490.103 411.289 486.831 408.003 485.799 406.914Z" fill="#E0E0E0"/>
<path d="M527.03 370.258C526.844 370.442 526.932 370.764 527.18 370.845C532.972 372.733 535.064 369.998 538.18 370.007C540.931 370.015 534.95 368.056 533.572 366.46C532.417 365.122 528.323 368.977 527.03 370.258Z" fill="#E0E0E0"/>
<path fill-rule="evenodd" clip-rule="evenodd" d="M430.298 435.423C428.911 431.312 427.602 427.434 423.961 426.642C416.181 424.951 412.797 415.479 416.63 409.614C418.527 406.713 420.093 408.947 422.175 411.917C424.3 414.95 426.963 418.749 431.064 418.635C439.183 418.41 437.605 403.525 430.162 401.721C422.719 399.917 425.2 383.679 430.162 379.845C432.599 377.962 433.839 381.736 435.191 385.851C436.592 390.115 438.114 394.746 441.213 393.828C447.302 392.024 446.4 388.641 444.596 384.356C442.792 380.071 446.4 370.599 452.038 371.501C456.295 372.183 453.867 379.162 451.646 385.55C450.924 387.623 450.225 389.634 449.783 391.347C447.979 398.338 454.519 396.083 458.353 386.16C462.186 376.237 480.003 359.774 487.896 361.353C495.79 362.932 498.271 366.766 490.377 378.718C485.423 386.22 477.893 389.813 471.076 393.066C467.031 394.996 463.238 396.806 460.383 399.241C452.715 405.781 459.029 411.87 469.629 404.654C480.229 397.437 493.309 388.867 501.203 392.25C509.096 395.633 500.301 408.037 483.161 409.615C466.021 411.194 459.03 417.283 456.774 424.858C454.994 430.839 460.806 428.98 467.549 426.822C469.346 426.247 471.209 425.651 473.012 425.176C481.582 422.922 481.357 433.295 469.404 435.776C458.511 437.064 453.882 440.458 450.295 443.088C446.975 445.522 444.549 447.301 438.877 446.15C433.554 445.07 431.876 440.096 430.298 435.423ZM428.952 387.918C428.022 390.709 427.346 394.43 430.052 395.783C432.758 397.136 436.268 398.532 435.802 396.544C435.338 394.557 433.519 391.893 433.519 391.893C431.235 387.495 429.883 385.127 428.952 387.918ZM475.811 379.883C476.454 378.543 476.689 377.238 476.91 376.014C477.386 373.376 477.793 371.121 482.069 369.735C484.238 369.031 485.696 368.287 486.654 367.798C488.46 366.876 488.49 366.861 488.158 369.735C487.651 374.132 486.128 377.346 480.378 378.869L480.373 378.872L480.373 378.872L480.373 378.872C480.183 379.022 473.812 384.048 475.811 379.883ZM490.189 398.372C490.189 398.372 484.156 402.431 484.213 403.221C484.243 403.646 485.356 403.481 486.871 403.257C488.164 403.065 489.75 402.831 491.204 402.883C494.361 402.995 498.195 400.177 499.661 398.372C501.127 396.568 495.151 394.989 490.189 398.372ZM467.18 430.511C471.759 428.627 477.441 429.271 473.157 431.413C468.871 433.555 465.602 434.232 464.136 433.33C462.67 432.428 464.759 431.507 467.18 430.511ZM449.031 375.256C446.325 376.159 446.889 378.527 449.031 382.135C449.031 382.135 450.314 381.19 451.329 379.034C452.344 376.878 451.738 374.355 449.031 375.256ZM435.849 422.052C445.263 418.197 445.357 414.061 445.493 408.046C445.504 407.541 445.516 407.023 445.533 406.491C445.801 398.364 449.819 403.334 452.75 410.325C454.397 414.252 452.663 416.507 450.847 418.869C449.431 420.711 447.964 422.618 448.014 425.435C448.014 425.435 447.115 433.717 442.826 433.717C438.429 433.717 428.138 425.209 435.849 422.052ZM419.598 414.625C418.659 413.173 418.152 412.389 417.704 413.789C417.027 415.903 416.52 418.694 418.888 419.709C421.256 420.724 425.231 421.654 421.425 417.172C420.67 416.283 420.078 415.367 419.598 414.625Z" fill="#FFEDB7"/>
<path d="M412.333 292.647H308.719C298.788 292.647 289.778 286.828 285.693 277.776L279.627 264.33C276.563 257.541 269.805 253.176 262.357 253.176H187.378C181.951 253.176 176.953 254.923 172.836 257.835L152.539 271.13L162.116 279.046V430.513C162.116 444.465 173.426 455.775 187.378 455.775H401.066L407.619 463.563L425.976 451.722C426.228 451.558 426.484 451.406 426.731 451.234L427.276 450.882L427.258 450.799C433.497 446.2 437.595 438.858 437.595 430.512V317.909C437.594 303.958 426.284 292.647 412.333 292.647Z" fill="#2F4858"/>
<path opacity="0.12" d="M412.333 292.647H308.719C298.788 292.647 289.778 286.828 285.693 277.776L279.627 264.33C276.563 257.541 269.805 253.176 262.357 253.176H187.378C181.951 253.176 176.953 254.923 172.836 257.835L152.539 271.13L162.116 279.046V430.513C162.116 444.465 173.426 455.775 187.378 455.775H401.066L407.619 463.563L425.976 451.722C426.228 451.558 426.484 451.406 426.731 451.234L427.276 450.882L427.258 450.799C433.497 446.2 437.595 438.858 437.595 430.512V317.909C437.594 303.958 426.284 292.647 412.333 292.647Z" fill="url(#paint0_linear_1478_2022)"/>
<path d="M393.473 328.882H302.485C295.002 328.882 288.935 322.816 288.935 315.333V176.684C288.935 169.201 295.002 163.134 302.485 163.134H393.473C400.957 163.134 407.023 169.201 407.023 176.684V315.333C407.023 322.817 400.957 328.882 393.473 328.882Z" fill="#DDF7FC"/>
<path d="M381.934 325.194H282.236C275.02 325.194 269.169 319.344 269.169 312.127V193.595C269.169 186.378 275.02 180.528 282.236 180.528H381.933C389.149 180.528 395 186.378 395 193.595V312.127C395 319.344 389.15 325.194 381.934 325.194Z" fill="#FFA300"/>
<path d="M302.824 208.89H285.867C282.089 208.89 279.026 205.827 279.026 202.049C279.026 198.27 282.089 195.208 285.867 195.208H302.824C306.603 195.208 309.666 198.271 309.666 202.049C309.666 205.827 306.603 208.89 302.824 208.89Z" fill="white" fill-opacity="0.8"/>
<path d="M371.241 235.468H285.867C282.089 235.468 279.026 232.404 279.026 228.626C279.026 224.847 282.089 221.785 285.867 221.785H371.241C375.02 221.785 378.083 224.848 378.083 228.626C378.083 232.405 375.02 235.468 371.241 235.468Z" fill="white" fill-opacity="0.8"/>
<path d="M351.9 257.96H285.867C282.089 257.96 279.026 254.896 279.026 251.118C279.026 247.34 282.089 244.277 285.867 244.277H351.9C355.679 244.277 358.742 247.34 358.742 251.118C358.742 254.896 355.679 257.96 351.9 257.96Z" fill="white" fill-opacity="0.8"/>
<path d="M371.241 280.463H285.867C282.089 280.463 279.026 277.4 279.026 273.622C279.026 269.843 282.089 266.78 285.867 266.78H371.241C375.02 266.78 378.083 269.844 378.083 273.622C378.083 277.4 375.02 280.463 371.241 280.463Z" fill="white" fill-opacity="0.8"/>
<path opacity="0.171223" d="M393.474 163.134H302.485C295.002 163.134 288.935 169.201 288.935 176.684V180.528H282.236C275.019 180.528 269.168 186.378 269.168 193.595V312.127C269.168 319.343 275.019 325.194 282.236 325.194H293.243C295.666 327.466 298.902 328.883 302.485 328.883H393.474C400.957 328.883 407.023 322.817 407.023 315.334V176.684C407.024 169.2 400.957 163.134 393.474 163.134Z" fill="url(#paint1_linear_1478_2022)"/>
<path d="M416.761 331.506V444.11C416.761 458.061 405.451 469.372 391.499 469.372H166.545C152.593 469.372 141.283 458.062 141.283 444.11V292.035C141.283 278.084 152.593 266.773 166.545 266.773H241.523C248.972 266.773 255.729 271.138 258.793 277.927L264.859 291.373C268.944 300.426 277.954 306.245 287.886 306.245H391.499C405.451 306.245 416.761 317.555 416.761 331.506Z" fill="#E6E9F8"/>
<path d="M299.851 355.583C299.851 362.63 296.328 368.915 290.9 372.629V404.53C290.9 411.053 285.567 416.385 279.044 416.385H278.997C272.473 416.385 267.141 411.052 267.141 404.53V372.629C261.714 368.915 258.19 362.63 258.19 355.583C258.19 344.061 267.522 334.776 279.045 334.776C290.519 334.776 299.851 344.06 299.851 355.583Z" fill="#2F4858"/>
<path d="M176.518 302.563C180.732 302.563 184.149 299.147 184.149 294.932C184.149 290.718 180.732 287.301 176.518 287.301C172.303 287.301 168.887 290.718 168.887 294.932C168.887 299.147 172.303 302.563 176.518 302.563Z" fill="#2F4858"/>
<path d="M196.249 302.563C200.464 302.563 203.88 299.147 203.88 294.932C203.88 290.718 200.464 287.301 196.249 287.301C192.035 287.301 188.618 290.718 188.618 294.932C188.618 299.147 192.035 302.563 196.249 302.563Z" fill="#2F4858"/>
<path d="M215.981 302.563C220.196 302.563 223.612 299.147 223.612 294.932C223.612 290.718 220.196 287.301 215.981 287.301C211.767 287.301 208.35 290.718 208.35 294.932C208.35 299.147 211.767 302.563 215.981 302.563Z" fill="#2F4858"/>
<path opacity="0.0757533" d="M391.499 306.251H287.885C277.954 306.251 268.943 300.431 264.859 291.378L258.793 277.934C255.729 271.144 248.971 266.78 241.523 266.78H166.544C152.592 266.78 141.282 278.09 141.282 292.042V444.116C141.282 458.067 152.592 469.378 166.544 469.378H391.499C405.451 469.378 416.761 458.067 416.761 444.116V331.513C416.761 317.561 405.451 306.251 391.499 306.251Z" fill="url(#paint2_linear_1478_2022)"/>
<path d="M632.011 93.021C632.011 110.353 617.933 124.366 600.667 124.366H494.746C494.215 124.366 493.618 124.366 493.086 124.3C474.027 123.436 458.82 107.764 458.82 88.5057C458.82 68.6496 474.891 52.5791 494.747 52.5791C497.403 52.5791 499.993 52.8451 502.45 53.3761C510.486 36.9735 527.287 25.7505 546.745 25.7505C569.589 25.7505 588.781 41.2234 594.426 62.3413C596.418 61.8765 598.543 61.6771 600.668 61.6771C617.933 61.6765 632.011 75.7548 632.011 93.021Z" fill="#CCE9F1"/>
<path d="M526.299 48.9876C525.242 48.9876 524.204 48.4816 523.555 47.5414C522.524 46.0303 522.907 43.9615 524.424 42.9275C530.897 38.495 538.49 36.1538 546.376 36.1538C548.212 36.1538 549.697 37.6388 549.697 39.474C549.697 41.3091 548.212 42.7941 546.376 42.7941C539.833 42.7941 533.536 44.7365 528.173 48.4068C527.602 48.7998 526.947 48.9876 526.299 48.9876Z" fill="white"/>
<path d="M514.408 62.7253C513.915 62.7253 513.416 62.618 512.949 62.3879C511.302 61.5805 510.621 59.5929 511.425 57.9456C512.593 55.5621 514.006 53.2992 515.621 51.2206C516.75 49.7645 518.838 49.5147 520.278 50.6334C521.724 51.7585 521.99 53.8469 520.861 55.2931C519.525 57.0147 518.358 58.8892 517.392 60.864C516.814 62.0413 515.633 62.7253 514.408 62.7253Z" fill="white"/>
<path opacity="0.0593136" d="M600.667 61.6761C598.542 61.6761 596.418 61.8755 594.425 62.3404C588.78 41.223 569.588 25.7495 546.744 25.7495C527.286 25.7495 510.485 36.9725 502.449 53.3751C499.992 52.8441 497.402 52.5781 494.747 52.5781C474.89 52.5781 458.819 68.6491 458.819 88.5052C458.819 107.763 474.027 123.436 493.086 124.299C493.617 124.365 494.215 124.365 494.746 124.365H600.667C617.933 124.365 632.011 110.353 632.011 93.0206C632.011 75.7543 617.933 61.6761 600.667 61.6761Z" fill="url(#paint3_linear_1478_2022)"/>
<path d="M547.68 115.863H545.422V115.73C546.152 115.863 546.95 115.863 547.68 115.863Z" fill="#2F4858"/>
<path d="M583.519 124.364H555.869C555.869 114.536 562.008 106.634 569.694 106.634C577.328 106.633 583.519 114.536 583.519 124.364Z" fill="#2F4858"/>
<path opacity="0.12" d="M583.519 124.364H555.869C555.869 114.536 562.008 106.634 569.694 106.634C577.328 106.633 583.519 114.536 583.519 124.364Z" fill="url(#paint4_linear_1478_2022)"/>
<path d="M569.687 106.633C562.001 106.633 555.862 114.536 555.862 124.363V174.338C555.862 188.035 544.759 199.139 531.061 199.139H509.962C508.503 199.139 507.32 197.956 507.32 196.497V124.364C507.32 114.536 513.459 106.633 521.093 106.633H569.687V106.633Z" fill="#2F4858"/>
<path d="M529.733 138.095H518.942C516.879 138.095 515.207 136.423 515.207 134.36C515.207 132.297 516.879 130.625 518.942 130.625H529.733C531.796 130.625 533.469 132.297 533.469 134.36C533.469 136.423 531.796 138.095 529.733 138.095Z" fill="#E6E9F8"/>
<path d="M542.808 156.203H518.942C516.879 156.203 515.207 154.531 515.207 152.468C515.207 150.405 516.879 148.732 518.942 148.732H542.808C544.871 148.732 546.543 150.405 546.543 152.468C546.543 154.531 544.871 156.203 542.808 156.203Z" fill="#E6E9F8"/>
<path d="M536.393 169.075H518.509C516.686 169.075 515.207 167.596 515.207 165.773V164.906C515.207 163.083 516.686 161.604 518.509 161.604H536.393C538.216 161.604 539.695 163.083 539.695 164.906V165.773C539.695 167.596 538.216 169.075 536.393 169.075Z" fill="#E6E9F8"/>
<path d="M538.914 181.936H518.687C516.765 181.936 515.207 180.379 515.207 178.457V177.944C515.207 176.023 516.765 174.465 518.687 174.465H538.914C540.835 174.465 542.393 176.022 542.393 177.944V178.457C542.393 180.379 540.835 181.936 538.914 181.936Z" fill="#E6E9F8"/>
<path opacity="0.18" d="M521.094 106.633C513.459 106.633 507.32 114.535 507.32 124.364V196.497C507.32 197.956 508.503 199.139 509.962 199.139H531.061C544.759 199.139 555.862 188.036 555.862 174.339V124.365C555.862 114.536 562.001 106.633 569.687 106.633H521.094V106.633Z" fill="url(#paint5_linear_1478_2022)"/>
<path d="M483.465 245.657C484.579 247.679 486.072 249.425 488.066 250.721C489.333 256.897 508.877 289.463 513.923 293.206C516.863 296 533.49 304.663 536.298 302.808C535.479 298.445 535.933 294.03 537.607 289.536L522.499 286.035L518.325 279.945L500.535 254.178L497.205 249.262L495.375 246.602C496.566 244.419 496.701 242.063 497.048 239.884C496.168 238.454 495.777 238.624 494.514 238.917C494.003 240.304 493.767 240.957 492.316 241.355C490.489 239.539 490.775 234.6 490.32 234.568C488.765 234.71 486.934 236.631 485.328 238.768C483.933 241.216 483.473 242.697 483.465 245.657Z" fill="#EDB6A4"/>
<path opacity="0.12" d="M483.465 245.657C484.579 247.679 486.072 249.425 488.066 250.721C489.333 256.897 508.877 289.463 513.923 293.206C516.863 296 533.49 304.663 536.298 302.808C535.479 298.445 535.933 294.03 537.607 289.536L522.499 286.035L518.325 279.945L500.535 254.178L497.205 249.262L495.375 246.602C496.566 244.419 496.701 242.063 497.048 239.884C496.168 238.454 495.777 238.624 494.514 238.917C494.003 240.304 493.767 240.957 492.316 241.355C490.489 239.539 490.775 234.6 490.32 234.568C488.765 234.71 486.934 236.631 485.328 238.768C483.933 241.216 483.473 242.697 483.465 245.657Z" fill="url(#paint6_linear_1478_2022)"/>
<path d="M539.5 289.8L529.138 286.592C527.166 289.669 523.733 295.749 523.576 300.504C528.396 304.072 534.715 309.068 542.421 310.927L539.5 289.8Z" fill="#DC7807"/>
<path d="M500.264 304.453L429.241 220.041C422.96 212.576 423.921 201.433 431.385 195.152C438.85 188.871 449.993 189.832 456.274 197.296L527.297 281.709C533.577 289.173 532.617 300.316 525.152 306.597C517.687 312.878 506.544 311.918 500.264 304.453Z" fill="#C5D2DB"/>
<path d="M452.807 217.854L450.92 215.612L453.839 215.864C454.818 215.948 455.679 215.223 455.763 214.245C455.847 213.267 455.123 212.405 454.145 212.321L451.225 212.07L453.468 210.183C454.219 209.551 454.316 208.43 453.683 207.679C453.051 206.927 451.93 206.83 451.179 207.463L448.936 209.35L449.188 206.43C449.272 205.452 448.547 204.59 447.569 204.506C446.592 204.422 445.73 205.147 445.646 206.124L445.394 209.044L443.507 206.802C442.876 206.05 441.754 205.954 441.003 206.586C440.252 207.218 440.155 208.339 440.787 209.091L442.674 211.333L439.754 211.081C438.776 210.997 437.915 211.721 437.83 212.699C437.746 213.678 438.471 214.539 439.449 214.623L442.368 214.875L440.126 216.761C439.375 217.394 439.278 218.515 439.911 219.267C440.542 220.018 441.664 220.115 442.415 219.482L444.657 217.596L444.406 220.515C444.322 221.493 445.046 222.354 446.024 222.439C447.003 222.523 447.863 221.798 447.948 220.821L448.2 217.901L450.086 220.143C450.718 220.894 451.84 220.991 452.591 220.359C453.343 219.727 453.439 218.605 452.807 217.854Z" fill="#354C5B"/>
<path d="M468.542 236.561L466.656 234.319L469.575 234.57C470.553 234.654 471.415 233.93 471.499 232.952C471.583 231.973 470.858 231.112 469.88 231.028L466.961 230.776L469.203 228.89C469.954 228.258 470.051 227.136 469.419 226.385C468.786 225.634 467.665 225.537 466.914 226.169L464.672 228.056L464.923 225.137C465.008 224.158 464.283 223.297 463.305 223.213C462.327 223.129 461.466 223.853 461.381 224.831L461.129 227.75L459.243 225.508C458.611 224.757 457.489 224.66 456.738 225.292C455.987 225.924 455.89 227.046 456.522 227.797L458.409 230.039L455.49 229.788C454.511 229.703 453.65 230.428 453.566 231.406C453.482 232.384 454.206 233.246 455.184 233.33L458.104 233.581L455.862 235.468C455.11 236.1 455.014 237.221 455.646 237.973C456.278 238.724 457.399 238.821 458.151 238.189L460.393 236.302L460.141 239.222C460.057 240.2 460.782 241.061 461.759 241.146C462.738 241.23 463.599 240.505 463.683 239.527L463.935 236.608L465.822 238.85C466.453 239.601 467.575 239.698 468.326 239.065C469.078 238.433 469.174 237.312 468.542 236.561Z" fill="#354C5B"/>
<path d="M484.283 255.264L482.396 253.022L485.315 253.274C486.293 253.358 487.155 252.633 487.239 251.655C487.323 250.677 486.598 249.816 485.62 249.732L482.701 249.48L484.943 247.593C485.695 246.961 485.791 245.84 485.159 245.089C484.527 244.337 483.406 244.241 482.654 244.873L480.412 246.76L480.663 243.84C480.748 242.862 480.023 242 479.045 241.916C478.067 241.832 477.206 242.557 477.121 243.535L476.87 246.454L474.983 244.212C474.351 243.46 473.23 243.364 472.478 243.996C471.727 244.628 471.63 245.749 472.263 246.501L474.149 248.743L471.23 248.491C470.251 248.407 469.391 249.132 469.306 250.109C469.222 251.088 469.946 251.949 470.924 252.033L473.844 252.285L471.602 254.172C470.851 254.804 470.754 255.925 471.386 256.677C472.018 257.428 473.14 257.525 473.891 256.892L476.133 255.006L475.881 257.925C475.797 258.903 476.522 259.765 477.5 259.849C478.478 259.933 479.339 259.209 479.424 258.231L479.675 255.311L481.562 257.553C482.194 258.304 483.315 258.401 484.066 257.769C484.818 257.137 484.915 256.015 484.283 255.264Z" fill="#354C5B"/>
<path d="M500.015 273.97L498.128 271.728L501.047 271.98C502.026 272.064 502.887 271.339 502.971 270.361C503.055 269.383 502.331 268.522 501.353 268.438L498.433 268.186L500.676 266.299C501.427 265.668 501.524 264.546 500.891 263.795C500.259 263.044 499.138 262.947 498.387 263.579L496.144 265.466L496.396 262.546C496.48 261.568 495.755 260.706 494.777 260.622C493.8 260.538 492.938 261.263 492.854 262.241L492.602 265.16L490.715 262.918C490.084 262.167 488.962 262.07 488.211 262.702C487.46 263.334 487.363 264.456 487.995 265.207L489.882 267.449L486.962 267.197C485.984 267.113 485.123 267.838 485.038 268.816C484.954 269.794 485.679 270.655 486.657 270.739L489.576 270.991L487.334 272.878C486.583 273.51 486.486 274.631 487.119 275.383C487.75 276.134 488.872 276.231 489.623 275.598L491.865 273.712L491.614 276.631C491.53 277.609 492.254 278.471 493.232 278.555C494.211 278.639 495.071 277.915 495.156 276.937L495.408 274.017L497.294 276.259C497.926 277.01 499.048 277.107 499.799 276.475C500.551 275.843 500.647 274.721 500.015 273.97Z" fill="#354C5B"/>
<path d="M515.76 292.677L513.873 290.435L516.792 290.686C517.77 290.77 518.632 290.046 518.716 289.068C518.8 288.09 518.075 287.228 517.097 287.144L514.178 286.893L516.42 285.006C517.172 284.374 517.268 283.252 516.636 282.501C516.004 281.75 514.883 281.653 514.131 282.286L511.889 284.172L512.14 281.253C512.225 280.274 511.5 279.413 510.522 279.329C509.544 279.245 508.683 279.969 508.598 280.947L508.347 283.866L506.46 281.624C505.828 280.873 504.707 280.776 503.955 281.409C503.204 282.04 503.107 283.162 503.74 283.913L505.626 286.155L502.707 285.904C501.728 285.82 500.868 286.544 500.783 287.522C500.699 288.501 501.423 289.362 502.401 289.446L505.321 289.697L503.079 291.584C502.328 292.217 502.231 293.338 502.863 294.089C503.495 294.841 504.617 294.937 505.368 294.305L507.61 292.418L507.358 295.338C507.274 296.316 507.999 297.177 508.977 297.262C509.955 297.346 510.816 296.621 510.901 295.643L511.152 292.724L513.039 294.966C513.671 295.717 514.792 295.814 515.543 295.181C516.295 294.55 516.391 293.428 515.76 292.677Z" fill="#354C5B"/>
<path d="M543.3 493.473C543.3 493.473 543.6 498.05 542.337 499.529C541.074 501.01 554.15 501.076 554.15 501.076C554.15 501.076 550.42 494.288 552.024 491.308C553.628 488.329 543.3 493.473 543.3 493.473Z" fill="#EDB6A4"/>
<path d="M528.865 509.717L554.303 507.698C555.932 504.893 555.563 502.118 553.642 499.363C549.478 499.983 545.543 499.893 542.016 498.538C538.912 501.543 534.128 504.083 528.603 506.418C526.84 507.324 527.268 508.46 528.865 509.717Z" fill="#282828"/>
<path d="M580.842 373.631C580.408 374.559 579.8 375.39 579.571 376.388C577.886 383.742 558.952 413.468 553.581 428.826C548.754 444.338 549.998 468.199 552.699 494.715C549.327 495.911 545.827 496.225 542.152 495.34C536.867 468.562 528.786 435.143 531.323 426.946C534.594 407.572 539.8 388.492 547.433 369.78L548.317 366.637L549.692 361.768L555.053 363.818L574.098 371.075L580.842 373.631Z" fill="#C4C4C4"/>
<path d="M602.967 484.786C602.967 484.786 604.96 488.917 604.344 490.763C603.728 492.608 615.875 487.769 615.875 487.769C615.875 487.769 609.873 482.874 610.243 479.51C610.614 476.147 602.967 484.786 602.967 484.786Z" fill="#EDB6A4"/>
<path d="M595.68 505.254L618.508 493.849C618.966 490.639 617.584 488.203 614.771 486.369C611.142 488.504 607.46 489.895 603.683 489.961C601.932 493.911 598.448 498.058 594.201 502.293C592.906 503.795 593.729 504.687 595.68 505.254Z" fill="#282828"/>
<path d="M581.991 362.672C581.937 363.695 592.108 371.505 592.43 372.478C598.582 391.005 588.767 405.256 588.275 420.999C589.613 437.19 599.71 458.844 612.151 482.415C609.473 484.788 606.346 486.391 602.607 486.947C587.672 464.102 567.654 436.147 566.934 427.597C562.707 408.409 560.382 388.769 560.446 368.56L560.088 365.314L559.537 360.284L565.276 360.176L585.653 359.767L581.991 362.672Z" fill="#C4C4C4"/>
<path d="M596.333 381.545C595.567 388.221 543.832 381.189 543.405 376.406C548.937 354.17 547.086 345.159 542.944 321.407C542.962 321.371 542.962 321.371 542.953 321.344C542.277 317.441 541.644 313.312 541.075 308.83C540.956 307.845 540.827 306.833 540.717 305.785C540.156 300.878 539.72 295.538 539.438 289.754C543.585 289.08 547.045 289.258 551.349 289.134C555.882 289.603 560.178 288.944 564.201 289.433C569.372 290.019 573.909 289.781 580.872 294.311C594.283 307.139 584.955 345.931 596.333 381.545Z" fill="#F48100"/>
<path d="M550.077 279.812L564.616 282.225C563.404 287.766 563.293 287.444 567.887 289.662C566.706 299.908 541.87 301.709 549.656 289.254C555.054 288.77 552.019 285.619 550.077 279.812Z" fill="#E0A494"/>
<path opacity="0.12" d="M550.077 279.812L564.616 282.225C563.404 287.766 563.293 287.444 567.887 289.662C566.706 299.908 541.87 301.709 549.656 289.254C555.054 288.77 552.019 285.619 550.077 279.812Z" fill="url(#paint7_linear_1478_2022)"/>
<path d="M546.364 282.764C547.314 284.693 556.579 284.799 566.178 284.357L574.5 261.72L554.927 254.352C545.876 263.032 543.818 279.847 546.364 282.764Z" fill="#EDB6A4"/>
<path opacity="0.12" d="M546.364 282.764C547.314 284.693 556.579 284.799 566.178 284.357L574.5 261.72L554.927 254.352C545.876 263.032 543.818 279.847 546.364 282.764Z" fill="url(#paint8_linear_1478_2022)"/>
<path d="M545.725 247.217C542.396 248.195 542.208 259.968 548.393 263.691C552.882 265.278 555.598 265.453 560.176 264.369C559.878 267.617 559.623 272.331 557.875 273.347C557.875 273.347 559.245 275.245 561.149 275.333C561.781 273.448 562.832 272.025 564.509 271.747C565.57 271.602 565.748 271.679 566.652 272.702C567.735 274.025 566.696 275.501 565.124 276.106C561.411 277.339 561.561 283.542 561.793 286.215C564.515 286.453 569.118 283.485 570.932 281.959C574.745 277.502 576.211 276.322 577.549 266.51C575.806 247.465 563.657 254.849 545.725 247.217Z" fill="#282828"/>
<path d="M491.31 295.835C493.308 296.993 495.487 297.718 497.864 297.8C502.134 302.439 535.675 320.257 541.929 320.862C545.889 321.739 564.601 320.585 566.05 317.546C563.098 314.231 561.21 310.215 560.326 305.501L545.578 310.294L538.861 307.229L510.33 294.33L504.941 291.837L502.001 290.501C501.896 288.017 500.797 285.929 499.97 283.883C498.478 283.112 498.231 283.458 497.3 284.36C497.578 285.812 497.713 286.494 496.674 287.584C494.172 286.97 491.87 282.591 491.463 282.798C490.205 283.722 489.626 286.311 489.353 288.971C489.42 291.788 489.791 293.295 491.31 295.835Z" fill="#EDB6A4"/>
<path opacity="0.12" d="M491.31 295.835C493.308 296.993 495.487 297.718 497.864 297.8C502.134 302.439 535.675 320.257 541.929 320.862C545.889 321.739 564.601 320.585 566.05 317.546C563.098 314.231 561.21 310.215 560.326 305.501L545.578 310.294L538.861 307.229L510.33 294.33L504.941 291.837L502.001 290.501C501.896 288.017 500.797 285.929 499.97 283.883C498.478 283.112 498.231 283.458 497.3 284.36C497.578 285.812 497.713 286.494 496.674 287.584C494.172 286.97 491.87 282.591 491.463 282.798C490.205 283.722 489.626 286.311 489.353 288.971C489.42 291.788 489.791 293.295 491.31 295.835Z" fill="url(#paint9_linear_1478_2022)"/>
<g opacity="0.1">
<path d="M267.499 338.287C261.121 337.908 255.436 337.087 251.269 335.192C251.079 335.382 250.89 335.445 250.7 335.634C250.763 335.509 250.826 335.382 250.7 335.319C249.69 334.876 248.806 333.297 248.174 332.098C248.364 331.972 248.553 331.845 248.742 331.718L226.828 278.985C235.795 275.512 242.68 271.659 245.332 267.239C246.216 265.723 246.658 264.144 246.468 262.439C246.089 257.702 242.237 254.923 236.806 253.155H187.356C181.925 253.155 176.935 254.923 172.831 257.828L166.642 261.933C167.716 263.828 168.852 265.407 170.115 266.797C175.357 272.544 181.925 274.628 189.693 276.27C182.936 279.427 176.052 282.964 169.42 286.627C169.484 286.88 169.547 287.069 169.673 287.258C168.221 287.953 166.389 288.269 165.126 288.395C165.063 288.142 165 287.89 165 287.638C163.989 287.511 163.042 287.511 162.095 287.764C160.074 288.08 158.305 289.153 156.79 291.048L162.095 314.226C163.737 315.047 165 314.857 165.316 312.899C166.01 306.963 167.084 301.531 169.042 297.426C168.916 297.237 168.789 297.047 168.663 296.858C168.789 296.795 168.915 296.732 169.042 296.669C170.558 295.784 172.705 295.09 173.526 294.775C173.905 295.154 174.22 295.469 174.599 295.722C177.505 294.648 180.536 293.638 183.757 292.627C185.778 291.996 187.862 291.301 189.945 290.669C193.04 289.785 196.197 288.838 199.293 287.89C202.324 287.006 205.418 286.122 208.387 285.175C209.144 286.564 209.902 287.953 210.723 289.406C212.933 293.511 215.46 297.869 217.985 302.29C225.816 315.489 234.405 329.003 239.71 336.645C240.026 336.519 240.216 336.456 240.468 336.329C241.1 337.466 241.289 338.856 241.352 339.866C240.91 339.928 240.468 340.055 239.963 340.182C239.078 343.592 239.647 346.497 242.299 348.708H242.236L242.552 349.844L261.246 344.792L268.698 342.771L268.383 341.634C269.52 339.803 269.584 338.54 267.499 338.287Z" fill="black"/>
<path d="M155.73 291.464L161.041 314.685L162.109 314.237L156.8 291.017L155.73 291.464Z" fill="black"/>
</g>
<path d="M224.906 193.521L222.791 176.09C221.963 169.978 217.691 166.045 211.919 163.061C210.501 173.004 210.013 184.328 210.342 193.521C212.476 194.37 218.562 195.445 224.906 193.521Z" fill="#F48100"/>
<path d="M224.259 203.35L223.74 193.731C217.397 195.656 212.474 194.367 210.341 193.519C210.637 201.788 211.593 208.338 213.159 210.534C217.032 215.494 250.139 237.007 251.584 236.594C252.423 236.354 255.957 232.358 255.957 232.358L224.259 203.35Z" fill="#EDB6A4"/>
<path opacity="0.12" d="M224.259 203.35L223.74 193.731C217.397 195.656 212.474 194.367 210.341 193.519C210.637 201.788 211.593 208.338 213.159 210.534C217.032 215.494 250.139 237.007 251.584 236.594C252.423 236.354 255.957 232.358 255.957 232.358L224.259 203.35Z" fill="url(#paint10_linear_1478_2022)"/>
<path d="M251.124 319.854C251.124 319.854 252.67 323.833 254.316 324.586C255.962 325.338 244.959 330.531 244.959 330.531C244.959 330.531 245.477 326.059 242.954 324.176C240.43 322.292 251.124 319.854 251.124 319.854Z" fill="#EDB6A4"/>
<path d="M272.036 330.95L245.948 338.018C243.324 335.803 242.7 332.903 243.632 329.471C248.006 328.602 251.898 327.107 254.931 324.498C259.099 326.386 264.776 327.21 271.119 327.566C273.201 327.841 273.179 329.127 272.036 330.95Z" fill="#282828"/>
<path d="M177.585 283.967C177.585 283.967 172.134 285.505 171.203 287.097C170.273 288.688 167.104 277.751 167.104 277.751C167.104 277.751 172.934 277.829 175.04 275.345C177.146 272.861 177.585 283.967 177.585 283.967Z" fill="#EDB6A4"/>
<path d="M165.754 303.537L160.453 280.353C162.676 277.588 165.439 276.581 168.624 276.939C169.214 280.872 170.42 284.266 172.72 286.698C170.725 290.847 169.653 296.242 168.988 302.185C168.621 304.159 167.412 304.328 165.754 303.537Z" fill="#282828"/>
<path d="M189.578 235.361C198.009 240.794 219.685 245.072 226.574 258.948L252.379 320.98C248.542 323.727 248.289 323.912 243.353 325.936C234.79 313.624 217.526 285.627 209.189 268.994C189.683 263.835 174.698 266.126 166.819 243.784L189.578 235.361Z" fill="#C4C4C4"/>
<path d="M181.617 240.246C192.095 249.015 211.996 253.928 221.751 254.277C208.873 258.113 190 266.57 173.055 275.924C174.836 280.192 175.843 283.601 178.239 285.028C206.227 274.759 251.745 266.891 250.126 251.712C249.17 240.933 230.169 240.101 214.754 238.476L181.617 240.246Z" fill="#C4C4C4"/>
<path d="M216.017 240.854C215.267 241.059 214.552 241.263 213.801 241.434C213.494 241.536 213.153 241.604 212.813 241.706C212.778 241.706 212.744 241.74 212.676 241.74C212.505 241.775 212.335 241.843 212.165 241.877C212.165 241.877 212.13 241.911 212.096 241.877C209.232 242.627 206.437 243.343 203.607 243.991C194.946 245.968 186.594 247.366 179.775 247.57C175.513 247.707 171.865 247.332 169.103 246.343C168.251 246.036 167.501 245.661 166.819 245.252C167.194 241.365 167.535 237.376 167.91 233.387C168.489 226.636 169.103 219.851 169.717 213.203C169.819 212.077 169.922 210.952 170.024 209.862C170.228 208.088 170.399 206.349 170.569 204.645C172.41 186.95 174.627 171.368 177.933 163.049C180.695 162.299 183.457 161.685 186.184 161.277C187.718 161.072 189.218 160.868 190.753 160.766C194.128 160.527 197.503 160.561 200.845 160.868C200.947 160.868 201.015 160.868 201.117 160.902C204.731 161.277 208.345 161.993 211.925 163.05C216.016 173.347 212.778 188.894 213.494 208.771C213.732 216.204 214.175 223.977 214.96 231.751C215.062 232.842 215.164 233.967 215.3 235.058C215.3 235.16 215.335 235.297 215.335 235.399C215.54 237.206 215.779 239.047 216.017 240.854Z" fill="#F48100"/>
<path d="M185.964 161.871C180.19 168.586 209.112 173.158 201.04 161.499C199.734 157.797 200.256 152.792 202.051 147.89L185.133 145.398C187.819 150.541 187.874 157.126 185.964 161.871Z" fill="#E0A494"/>
<path opacity="0.12" d="M185.964 161.871C180.19 168.586 209.112 173.158 201.04 161.499C199.734 157.797 200.256 152.792 202.051 147.89L185.133 145.398C187.819 150.541 187.874 157.126 185.964 161.871Z" fill="url(#paint11_linear_1478_2022)"/>
<path d="M184.893 154.998C187.899 159.529 193.111 163.557 199.228 162.582C201.269 162.119 211.528 147.028 210.355 137.355L192.201 129.782L182.94 140.175C182.288 145.183 182.903 150.126 184.893 154.998Z" fill="#EDB6A4"/>
<path opacity="0.12" d="M184.893 154.998C187.899 159.529 193.111 163.557 199.228 162.582C201.269 162.119 211.528 147.028 210.355 137.355L192.201 129.782L182.94 140.175C182.288 145.183 182.903 150.126 184.893 154.998Z" fill="url(#paint12_linear_1478_2022)"/>
<path d="M255.081 238.086L211.586 244.496L222.11 217.762L265.605 211.353L255.081 238.086Z" fill="#696868"/>
<path d="M194.657 142.64C200.857 145.43 206.736 147.591 210.452 145.516C214.046 142.835 215.35 142.592 215.946 139.434C215.156 137.038 214.79 132.191 212.809 130.288C207.2 131.919 201.057 130.95 194.963 128.15C189.479 127.438 186.029 129.748 182.695 133.018C180.092 136.181 180.883 141.004 182.063 149.576C183.011 153.478 184.142 153.425 185.875 157.307C187.483 158.165 189.617 153.561 189.286 151.932C188.033 149.873 186.785 147.817 186.781 146.252C187.264 144.751 188.18 143.979 189.369 143.664C190.817 144.226 191.358 145.284 191.184 146.734C193.125 145.812 194.515 144.58 194.657 142.64Z" fill="#282828"/>
<path d="M260.046 227.084C258.808 226.093 256.666 225.907 255.37 225.941C254.334 226.07 253.228 226.738 252.647 227.927C251.847 231.105 253.012 233.213 254.686 235.95C255.901 236.706 256.363 236.465 256.849 236.313C258.406 236.168 260.957 227.505 260.046 227.084Z" fill="#EDB6A4"/>
<path opacity="0.12" d="M260.046 227.084C258.808 226.093 256.666 225.907 255.37 225.941C254.334 226.07 253.228 226.738 252.647 227.927C251.847 231.105 253.012 233.213 254.686 235.95C255.901 236.706 256.363 236.465 256.849 236.313C258.406 236.168 260.957 227.505 260.046 227.084Z" fill="url(#paint13_linear_1478_2022)"/>
<path d="M181.302 195.152C181.283 184.432 179.99 173.333 177.931 163.056C174.112 163.942 165.759 167.591 165.828 173.625C164.684 179.032 164.022 187.537 164.69 195.152C166.734 196.023 174.046 197.76 181.302 195.152Z" fill="#F48100"/>
<path d="M223.345 232.488C223.076 235.718 218.814 239.442 216.122 241.46C214.641 241.775 212.533 242.358 210.828 241.505C210.021 240.787 209.392 239.666 209.168 238.679C205.938 236.301 173.055 219.747 167.985 211.358C167.536 210.641 166.325 203.462 165.607 195.208C167.671 196.061 173.189 197.766 180.457 195.164C180.457 198.663 180.412 202.117 180.367 205.526L213.564 232.174V232.129C215.179 231.636 217.467 231.143 219.171 231.232C220.249 231.322 223.21 231.187 223.345 232.488Z" fill="#EDB6A4"/>
<path opacity="0.12" d="M223.345 232.488C223.076 235.718 218.814 239.442 216.122 241.46C214.641 241.775 212.533 242.358 210.828 241.505C210.021 240.787 209.392 239.666 209.168 238.679C205.938 236.301 173.055 219.747 167.985 211.358C167.536 210.641 166.325 203.462 165.607 195.208C167.671 196.061 173.189 197.766 180.457 195.164C180.457 198.663 180.412 202.117 180.367 205.526L213.564 232.174V232.129C215.179 231.636 217.467 231.143 219.171 231.232C220.249 231.322 223.21 231.187 223.345 232.488Z" fill="url(#paint14_linear_1478_2022)"/>
<defs>
<linearGradient id="paint0_linear_1478_2022" x1="5.2067" y1="107.698" x2="13.2362" y2="525.696" gradientUnits="userSpaceOnUse">
<stop stop-color="white"/>
<stop offset="0.0978" stop-color="#FAFAFA"/>
<stop offset="0.2218" stop-color="#EAEAEA"/>
<stop offset="0.36" stop-color="#D0D0D0"/>
<stop offset="0.5085" stop-color="#ABABAB"/>
<stop offset="0.6652" stop-color="#7D7D7D"/>
<stop offset="0.829" stop-color="#444444"/>
<stop offset="0.9955" stop-color="#020202"/>
<stop offset="1"/>
</linearGradient>
<linearGradient id="paint1_linear_1478_2022" x1="235.947" y1="86.1025" x2="236.798" y2="330.821" gradientUnits="userSpaceOnUse">
<stop stop-color="white"/>
<stop offset="0.0978" stop-color="#FAFAFA"/>
<stop offset="0.2218" stop-color="#EAEAEA"/>
<stop offset="0.36" stop-color="#D0D0D0"/>
<stop offset="0.5085" stop-color="#ABABAB"/>
<stop offset="0.6652" stop-color="#7D7D7D"/>
<stop offset="0.829" stop-color="#444444"/>
<stop offset="0.9955" stop-color="#020202"/>
<stop offset="1"/>
</linearGradient>
<linearGradient id="paint2_linear_1478_2022" x1="73.9056" y1="151.218" x2="63.6492" y2="471.477" gradientUnits="userSpaceOnUse">
<stop stop-color="white"/>
<stop offset="0.0978" stop-color="#FAFAFA"/>
<stop offset="0.2218" stop-color="#EAEAEA"/>
<stop offset="0.36" stop-color="#D0D0D0"/>
<stop offset="0.5085" stop-color="#ABABAB"/>
<stop offset="0.6652" stop-color="#7D7D7D"/>
<stop offset="0.829" stop-color="#444444"/>
<stop offset="0.9955" stop-color="#020202"/>
<stop offset="1"/>
</linearGradient>
<linearGradient id="paint3_linear_1478_2022" x1="406.126" y1="-25.8443" x2="408.687" y2="125.815" gradientUnits="userSpaceOnUse">
<stop stop-color="white"/>
<stop offset="0.0978" stop-color="#FAFAFA"/>
<stop offset="0.2218" stop-color="#EAEAEA"/>
<stop offset="0.36" stop-color="#D0D0D0"/>
<stop offset="0.5085" stop-color="#ABABAB"/>
<stop offset="0.6652" stop-color="#7D7D7D"/>
<stop offset="0.829" stop-color="#444444"/>
<stop offset="0.9955" stop-color="#020202"/>
<stop offset="1"/>
</linearGradient>
<linearGradient id="paint4_linear_1478_2022" x1="543.661" y1="96.5171" x2="544.637" y2="127.152" gradientUnits="userSpaceOnUse">
<stop stop-color="white"/>
<stop offset="0.0978" stop-color="#FAFAFA"/>
<stop offset="0.2218" stop-color="#EAEAEA"/>
<stop offset="0.36" stop-color="#D0D0D0"/>
<stop offset="0.5085" stop-color="#ABABAB"/>
<stop offset="0.6652" stop-color="#7D7D7D"/>
<stop offset="0.829" stop-color="#444444"/>
<stop offset="0.9955" stop-color="#020202"/>
<stop offset="1"/>
</linearGradient>
<linearGradient id="paint5_linear_1478_2022" x1="484.028" y1="61.213" x2="489.236" y2="218.61" gradientUnits="userSpaceOnUse">
<stop stop-color="white"/>
<stop offset="0.0978" stop-color="#FAFAFA"/>
<stop offset="0.2218" stop-color="#EAEAEA"/>
<stop offset="0.36" stop-color="#D0D0D0"/>
<stop offset="0.5085" stop-color="#ABABAB"/>
<stop offset="0.6652" stop-color="#7D7D7D"/>
<stop offset="0.829" stop-color="#444444"/>
<stop offset="0.9955" stop-color="#020202"/>
<stop offset="1"/>
</linearGradient>
<linearGradient id="paint6_linear_1478_2022" x1="515.138" y1="245.987" x2="489.47" y2="259.484" gradientUnits="userSpaceOnUse">
<stop stop-color="white"/>
<stop offset="0.0978" stop-color="#FAFAFA"/>
<stop offset="0.2218" stop-color="#EAEAEA"/>
<stop offset="0.36" stop-color="#D0D0D0"/>
<stop offset="0.5085" stop-color="#ABABAB"/>
<stop offset="0.6652" stop-color="#7D7D7D"/>
<stop offset="0.829" stop-color="#444444"/>
<stop offset="0.9955" stop-color="#020202"/>
<stop offset="1"/>
</linearGradient>
<linearGradient id="paint7_linear_1478_2022" x1="542.067" y1="279.791" x2="545.933" y2="304.456" gradientUnits="userSpaceOnUse">
<stop stop-color="white"/>
<stop offset="0.0978" stop-color="#FAFAFA"/>
<stop offset="0.2218" stop-color="#EAEAEA"/>
<stop offset="0.36" stop-color="#D0D0D0"/>
<stop offset="0.5085" stop-color="#ABABAB"/>
<stop offset="0.6652" stop-color="#7D7D7D"/>
<stop offset="0.829" stop-color="#444444"/>
<stop offset="0.9955" stop-color="#020202"/>
<stop offset="1"/>
</linearGradient>
<linearGradient id="paint8_linear_1478_2022" x1="527.045" y1="266.719" x2="556.504" y2="298.313" gradientUnits="userSpaceOnUse">
<stop stop-color="white"/>
<stop offset="0.0978" stop-color="#FAFAFA"/>
<stop offset="0.2218" stop-color="#EAEAEA"/>
<stop offset="0.36" stop-color="#D0D0D0"/>
<stop offset="0.5085" stop-color="#ABABAB"/>
<stop offset="0.6652" stop-color="#7D7D7D"/>
<stop offset="0.829" stop-color="#444444"/>
<stop offset="0.9955" stop-color="#020202"/>
<stop offset="1"/>
</linearGradient>
<linearGradient id="paint9_linear_1478_2022" x1="504.476" y1="285.81" x2="502.023" y2="314.513" gradientUnits="userSpaceOnUse">
<stop stop-color="white"/>
<stop offset="0.0978" stop-color="#FAFAFA"/>
<stop offset="0.2218" stop-color="#EAEAEA"/>
<stop offset="0.36" stop-color="#D0D0D0"/>
<stop offset="0.5085" stop-color="#ABABAB"/>
<stop offset="0.6652" stop-color="#7D7D7D"/>
<stop offset="0.829" stop-color="#444444"/>
<stop offset="0.9955" stop-color="#020202"/>
<stop offset="1"/>
</linearGradient>
<linearGradient id="paint10_linear_1478_2022" x1="230.589" y1="199.591" x2="217.371" y2="216.317" gradientUnits="userSpaceOnUse">
<stop stop-color="white"/>
<stop offset="0.0978" stop-color="#FAFAFA"/>
<stop offset="0.2218" stop-color="#EAEAEA"/>
<stop offset="0.36" stop-color="#D0D0D0"/>
<stop offset="0.5085" stop-color="#ABABAB"/>
<stop offset="0.6652" stop-color="#7D7D7D"/>
<stop offset="0.829" stop-color="#444444"/>
<stop offset="0.9955" stop-color="#020202"/>
<stop offset="1"/>
</linearGradient>
<linearGradient id="paint11_linear_1478_2022" x1="188.484" y1="149.152" x2="179.084" y2="163.483" gradientUnits="userSpaceOnUse">
<stop stop-color="white"/>
<stop offset="0.0978" stop-color="#FAFAFA"/>
<stop offset="0.2218" stop-color="#EAEAEA"/>
<stop offset="0.36" stop-color="#D0D0D0"/>
<stop offset="0.5085" stop-color="#ABABAB"/>
<stop offset="0.6652" stop-color="#7D7D7D"/>
<stop offset="0.829" stop-color="#444444"/>
<stop offset="0.9955" stop-color="#020202"/>
<stop offset="1"/>
</linearGradient>
<linearGradient id="paint12_linear_1478_2022" x1="207.704" y1="114.638" x2="172.472" y2="129.304" gradientUnits="userSpaceOnUse">
<stop stop-color="white"/>
<stop offset="0.0978" stop-color="#FAFAFA"/>
<stop offset="0.2218" stop-color="#EAEAEA"/>
<stop offset="0.36" stop-color="#D0D0D0"/>
<stop offset="0.5085" stop-color="#ABABAB"/>
<stop offset="0.6652" stop-color="#7D7D7D"/>
<stop offset="0.829" stop-color="#444444"/>
<stop offset="0.9955" stop-color="#020202"/>
<stop offset="1"/>
</linearGradient>
<linearGradient id="paint13_linear_1478_2022" x1="260.85" y1="219.245" x2="249.26" y2="223.306" gradientUnits="userSpaceOnUse">
<stop stop-color="white"/>
<stop offset="0.0978" stop-color="#FAFAFA"/>
<stop offset="0.2218" stop-color="#EAEAEA"/>
<stop offset="0.36" stop-color="#D0D0D0"/>
<stop offset="0.5085" stop-color="#ABABAB"/>
<stop offset="0.6652" stop-color="#7D7D7D"/>
<stop offset="0.829" stop-color="#444444"/>
<stop offset="0.9955" stop-color="#020202"/>
<stop offset="1"/>
</linearGradient>
<linearGradient id="paint14_linear_1478_2022" x1="185.745" y1="193.179" x2="174.068" y2="223.15" gradientUnits="userSpaceOnUse">
<stop stop-color="white"/>
<stop offset="0.0978" stop-color="#FAFAFA"/>
<stop offset="0.2218" stop-color="#EAEAEA"/>
<stop offset="0.36" stop-color="#D0D0D0"/>
<stop offset="0.5085" stop-color="#ABABAB"/>
<stop offset="0.6652" stop-color="#7D7D7D"/>
<stop offset="0.829" stop-color="#444444"/>
<stop offset="0.9955" stop-color="#020202"/>
<stop offset="1"/>
</linearGradient>
</defs>
</svg>
