<svg width="34" height="31" viewBox="0 0 34 31" fill="none" xmlns="http://www.w3.org/2000/svg">
<path d="M33.0677 25.9687H32.0963V9.92787C32.0963 9.18722 31.7971 8.47694 31.2644 7.95321C30.7318 7.42948 30.0093 7.13525 29.256 7.13525C29.1053 7.13525 28.9608 7.19412 28.8543 7.29885C28.7478 7.40357 28.6879 7.54566 28.6879 7.69378C28.6879 7.8419 28.7478 7.98399 28.8543 8.08871C28.9608 8.19349 29.1053 8.2523 29.256 8.2523C29.708 8.2523 30.1414 8.42885 30.461 8.74308C30.7806 9.0573 30.9602 9.48351 30.9602 9.92787V25.9687H3.36313V9.92787C3.36313 9.48351 3.54268 9.0573 3.86228 8.74308C4.18189 8.42885 4.61536 8.2523 5.06735 8.2523C5.21801 8.2523 5.36252 8.19349 5.46904 8.08871C5.57555 7.98399 5.63543 7.8419 5.63543 7.69378C5.63543 7.54566 5.57555 7.40357 5.46904 7.29885C5.36252 7.19412 5.21801 7.13525 5.06735 7.13525C4.31404 7.13525 3.59158 7.42948 3.05891 7.95321C2.52623 8.47694 2.22698 9.18722 2.22698 9.92787V25.9687H1.25557C1.10491 25.9687 0.96042 26.0276 0.853883 26.1323C0.747352 26.237 0.6875 26.3791 0.6875 26.5272C0.689005 27.5207 1.09108 28.4731 1.80561 29.1756C2.52012 29.8781 3.48879 30.2734 4.49928 30.2749H29.824C30.8345 30.2734 31.8032 29.8781 32.5177 29.1756C33.2322 28.4731 33.6343 27.5207 33.6358 26.5272C33.6358 26.3791 33.5759 26.237 33.4694 26.1323C33.3629 26.0276 33.2184 25.9687 33.0677 25.9687Z" fill="#2F4858"/>
<path d="M4.89704 11.8939C4.89398 11.9273 4.89398 11.961 4.89704 11.9944C4.89704 11.9944 4.89704 12.0391 4.89704 12.067C4.89489 12.0762 4.89489 12.0858 4.89704 12.095C4.92238 12.7218 5.15955 13.3225 5.57112 13.802C5.98269 14.2815 6.54508 14.6124 7.16934 14.7424V23.5167H5.37423C5.22357 23.5167 5.07906 23.5756 4.97254 23.6803C4.86603 23.7851 4.80615 23.9271 4.80615 24.0753C4.80615 24.2234 4.86603 24.3655 4.97254 24.4702C5.07906 24.5749 5.22357 24.6338 5.37423 24.6338H28.9493C29.1 24.6338 29.2445 24.5749 29.351 24.4702C29.4575 24.3655 29.5174 24.2234 29.5174 24.0753C29.5174 23.9271 29.4575 23.7851 29.351 23.6803C29.2445 23.5756 29.1 23.5167 28.9493 23.5167H27.1428V14.7424C27.7671 14.6124 28.3295 14.2815 28.7411 13.802C29.1526 13.3225 29.3898 12.7218 29.4151 12.095C29.4173 12.0858 29.4173 12.0762 29.4151 12.067C29.4151 12.067 29.4151 12.0168 29.4151 11.9944C29.4182 11.961 29.4182 11.9273 29.4151 11.8939C29.4151 11.8939 29.4151 11.8492 29.4151 11.8269L27.1428 4.68895V1.33782C27.1428 1.18969 27.083 1.04763 26.9764 0.942888C26.8699 0.838143 26.7254 0.779297 26.5748 0.779297H7.75446C7.6038 0.779297 7.45929 0.838143 7.35277 0.942888C7.24626 1.04763 7.18638 1.18969 7.18638 1.33782V4.68895L4.90273 11.8436C4.90273 11.8436 4.90272 11.8716 4.89704 11.8939ZM13.7533 16.524V20.78H8.31685V16.524H13.7533ZM15.4575 12.5529H18.7978C18.6703 12.8872 18.4421 13.1752 18.1436 13.3786C17.8452 13.5819 17.4908 13.6908 17.1277 13.6908C16.7646 13.6908 16.4101 13.5819 16.1117 13.3786C15.8133 13.1752 15.5851 12.8872 15.4575 12.5529ZM15.3894 11.4359L15.4859 9.92231L15.7813 5.33125H18.474L18.6444 7.94514L18.866 11.4359H15.3894ZM25.9669 16.524V20.78H20.5702V16.524H25.9669ZM21.8143 13.6923C21.4535 13.6947 21.1005 13.5891 20.8022 13.3896C20.5039 13.1901 20.2744 12.9061 20.1442 12.5753H23.4844C23.3563 12.9008 23.132 13.1811 22.8404 13.3802C22.5489 13.5793 22.2034 13.688 21.8484 13.6923H21.8143ZM20.0021 11.4582L19.8374 8.84436L19.6158 5.3536H22.3028L23.4731 11.4582H20.0021ZM14.6736 5.33125L14.577 6.84485L14.2873 11.4359H10.8164L11.9866 5.33125H14.6736ZM14.1453 12.5529C14.0178 12.8872 13.7896 13.1752 13.4911 13.3786C13.1927 13.5819 12.8383 13.6908 12.4752 13.6908C12.112 13.6908 11.7576 13.5819 11.4592 13.3786C11.1607 13.1752 10.9325 12.8872 10.805 12.5529H14.1453ZM19.4341 23.5167H14.8895V16.524H19.4341V23.5167ZM26.535 13.6923C26.1742 13.6947 25.8212 13.5891 25.5229 13.3896C25.2246 13.1901 24.9951 12.9061 24.8649 12.5753H28.1994C28.0716 12.9065 27.8434 13.1913 27.5458 13.391C27.2482 13.5908 26.8953 13.696 26.535 13.6923ZM28.1029 11.4582H24.6603L23.4901 5.33125H26.1544L28.1029 11.4582ZM8.16915 5.33125H10.8334L9.66319 11.4359H6.22066L8.16915 5.33125ZM9.453 12.5529C9.32819 12.8883 9.10159 13.1779 8.80392 13.3824C8.50619 13.587 8.15177 13.6967 7.78854 13.6967C7.42532 13.6967 7.07089 13.587 6.77317 13.3824C6.4755 13.1779 6.24889 12.8883 6.12408 12.5529H9.453Z" fill="#FFA300"/>
</svg>
