<svg width="80" height="80" viewBox="0 0 80 80" fill="none" xmlns="http://www.w3.org/2000/svg">
<circle cx="40" cy="40" r="40" fill="#FFF8EE"/>
<path d="M20 47.2818L32.3312 59.4056L59.0624 33.1239L46.7312 21L20 47.2818ZM32.3312 57.1813L22.2624 47.2818L23.9312 45.641L27.7656 49.411L28.8968 48.2988L25.0624 44.5288L27.9312 41.7083L30.1656 43.9051L31.2968 42.7929L29.0624 40.5961L31.9312 37.7755L35.7656 41.5455L36.8968 40.4333L33.0624 36.6633L35.9312 33.8428L38.1656 36.0396L39.2968 34.9274L37.0624 32.7306L39.9312 29.91L43.7656 33.68L44.8968 32.5678L41.0624 28.7979L43.9312 25.9773L46.1656 28.1741L47.2968 27.0619L45.0624 24.8651L46.7312 23.2244L56.8 33.1239L32.3312 57.1813Z" fill="#F48100" stroke="#F48100" stroke-width="1.3" stroke-linejoin="round"/>
</svg>
