<svg width="80" height="80" viewBox="0 0 80 80" fill="none" xmlns="http://www.w3.org/2000/svg">
<circle cx="40" cy="40" r="40" fill="#FFF8EE"/>
<path d="M53.9539 25H46.3631C46.0856 25 45.8194 25.1084 45.6232 25.3014C45.4269 25.4943 45.3166 25.756 45.3166 26.0289C45.3166 26.3018 45.4269 26.5635 45.6232 26.7565C45.8194 26.9494 46.0856 27.0578 46.3631 27.0578H51.4283L43.3492 35.001C43.2464 35.0952 43.1639 35.2088 43.1067 35.335C43.0495 35.4613 43.0188 35.5975 43.0163 35.7357C43.0138 35.8738 43.0396 36.011 43.0923 36.1391C43.1449 36.2673 43.2233 36.3836 43.3226 36.4814C43.422 36.5791 43.5404 36.6561 43.6707 36.7078C43.801 36.7596 43.9406 36.785 44.0811 36.7826C44.2216 36.7801 44.3602 36.7499 44.4885 36.6936C44.6169 36.6374 44.7325 36.5563 44.8283 36.4552L52.9073 28.512V33.492C52.9073 33.7648 53.0176 34.0266 53.2139 34.2195C53.4101 34.4125 53.6763 34.5209 53.9539 34.5209C54.2314 34.5209 54.4976 34.4125 54.6939 34.2195C54.8901 34.0266 55.0004 33.7648 55.0004 33.492V26.0289C55.0004 25.756 54.8901 25.4943 54.6939 25.3014C54.4976 25.1084 54.2314 25 53.9539 25Z" fill="#F48100" stroke="#F48100" stroke-width="1.4"/>
<path d="M28.5721 27.0578H33.6372C33.9148 27.0578 34.181 26.9494 34.3772 26.7565C34.5735 26.5635 34.6837 26.3018 34.6837 26.0289C34.6837 25.756 34.5735 25.4943 34.3772 25.3014C34.181 25.1084 33.9148 25 33.6372 25H26.0465C25.769 25 25.5028 25.1084 25.3065 25.3014C25.1103 25.4943 25 25.756 25 26.0289V33.492C25 33.7648 25.1103 34.0266 25.3065 34.2195C25.5028 34.4125 25.769 34.5209 26.0465 34.5209C26.3241 34.5209 26.5902 34.4125 26.7865 34.2195C26.9828 34.0266 27.093 33.7648 27.093 33.492V28.512L35.1721 36.4552C35.2679 36.5563 35.3834 36.6374 35.5118 36.6936C35.6402 36.7499 35.7788 36.7801 35.9193 36.7826C36.0598 36.785 36.1994 36.7596 36.3297 36.7078C36.46 36.6561 36.5784 36.5791 36.6777 36.4814C36.7771 36.3836 36.8555 36.2673 36.9081 36.1391C36.9607 36.011 36.9866 35.8738 36.9841 35.7357C36.9816 35.5975 36.9509 35.4613 36.8937 35.335C36.8365 35.2088 36.754 35.0952 36.6512 35.001L28.5721 27.0578Z" fill="#F48100" stroke="#F48100" stroke-width="1.4"/>
<path d="M35.1721 43.0403L27.093 50.9836V46.0036C27.093 45.7307 26.9828 45.469 26.7865 45.276C26.5902 45.0831 26.3241 44.9747 26.0465 44.9747C25.769 44.9747 25.5028 45.0831 25.3065 45.276C25.1103 45.469 25 45.7307 25 46.0036V53.4667C25 53.7396 25.1103 54.0013 25.3065 54.1942C25.5028 54.3872 25.769 54.4956 26.0465 54.4956H33.6372C33.9148 54.4956 34.1809 54.3872 34.3772 54.1942C34.5735 54.0013 34.6837 53.7396 34.6837 53.4667C34.6837 53.1938 34.5735 52.9321 34.3772 52.7391C34.1809 52.5462 33.9148 52.4378 33.6372 52.4378H28.5721L36.6512 44.4945C36.836 44.2995 36.9367 44.0415 36.9319 43.7749C36.9271 43.5084 36.8173 43.254 36.6255 43.0655C36.4338 42.877 36.1751 42.769 35.904 42.7643C35.6329 42.7596 35.3705 42.8586 35.1721 43.0403Z" fill="#F48100" stroke="#F48100" stroke-width="1.4"/>
<path d="M53.9534 44.9747C53.6758 44.9747 53.4096 45.0831 53.2134 45.276C53.0171 45.469 52.9069 45.7307 52.9069 46.0036V50.9836L44.8278 43.0403C44.6294 42.8586 44.367 42.7596 44.0959 42.7643C43.8248 42.769 43.5661 42.877 43.3744 43.0655C43.1826 43.254 43.0728 43.5084 43.068 43.7749C43.0633 44.0415 43.1639 44.2995 43.3487 44.4945L51.4278 52.4378H46.3627C46.0851 52.4378 45.819 52.5462 45.6227 52.7391C45.4264 52.9321 45.3162 53.1938 45.3162 53.4667C45.3162 53.7396 45.4264 54.0013 45.6227 54.1942C45.819 54.3872 46.0851 54.4956 46.3627 54.4956H53.9534C54.2309 54.4956 54.4971 54.3872 54.6934 54.1942C54.8896 54.0013 54.9999 53.7396 54.9999 53.4667V46.0036C54.9999 45.7307 54.8896 45.469 54.6934 45.276C54.4971 45.0831 54.2309 44.9747 53.9534 44.9747Z" fill="#F48100" stroke="#F48100" stroke-width="1.4"/>
</svg>
