<svg width="33" height="31" viewBox="0 0 33 31" fill="none" xmlns="http://www.w3.org/2000/svg">
<path fill-rule="evenodd" clip-rule="evenodd" d="M2.90321 0.584961H30.2462C30.766 0.584961 31.2426 0.796837 31.5874 1.13584L31.5899 1.13833L31.5925 1.14082L31.595 1.14332C31.9398 1.48481 32.1528 1.95094 32.1528 2.46193V28.2061C32.1528 28.7221 31.9373 29.1907 31.5925 29.5297C31.2477 29.8687 30.771 30.0806 30.2462 30.0806H2.90321C2.38348 30.0806 1.90684 29.8712 1.55951 29.5297L1.55697 29.5272L1.55444 29.5247L1.5519 29.5222C1.2071 29.1807 0.994141 28.7146 0.994141 28.2036V2.45695C0.994141 1.94097 1.2071 1.47235 1.5519 1.13335C1.57219 1.1134 1.59247 1.09346 1.61529 1.07601C1.96008 0.77191 2.41136 0.584961 2.90321 0.584961ZM17.6788 25.1999C17.2783 25.1999 16.9537 24.8535 16.9537 24.4247C16.9537 23.996 17.2783 23.6495 17.6788 23.6495H20.4327C20.8333 23.6495 21.1578 23.996 21.1578 24.4247C21.1578 24.8535 20.8333 25.1999 20.4327 25.1999H17.6788ZM6.27767 25.1999C5.88217 25.1999 5.56019 24.8535 5.56019 24.4247C5.56019 23.996 5.88217 23.6495 6.27767 23.6495H14.5554C14.9509 23.6495 15.2729 23.996 15.2729 24.4247C15.2729 24.8535 14.9509 25.1999 14.5554 25.1999H6.27767ZM5.99118 21.8124C5.59568 21.8124 5.2737 21.4659 5.2737 21.0372C5.2737 20.6085 5.59568 20.262 5.99118 20.262H23.0909C23.4864 20.262 23.8084 20.6085 23.8084 21.0372C23.8084 21.4659 23.4864 21.8124 23.0909 21.8124H5.99118ZM30.4313 7.29769C30.373 7.30766 30.3096 7.31264 30.2488 7.31264H2.90574C2.84236 7.31264 2.78152 7.30766 2.7232 7.29769V28.2011C2.7232 28.251 2.74349 28.2958 2.77391 28.3282L2.77644 28.3307C2.8094 28.3631 2.85504 28.3806 2.90574 28.3806H30.2488C30.2969 28.3806 30.3426 28.3606 30.3781 28.3257C30.411 28.2933 30.4338 28.2485 30.4338 28.1986L30.4313 7.29769ZM13.7061 3.00284C14.3906 3.00284 14.9433 3.54873 14.9433 4.21925C14.9433 4.89227 14.388 5.43567 13.7061 5.43567C13.0215 5.43567 12.4688 4.88978 12.4688 4.21925C12.4688 3.54873 13.0241 3.00284 13.7061 3.00284ZM9.37832 3.00284C10.0628 3.00284 10.6155 3.54873 10.6155 4.21925C10.6155 4.89227 10.0603 5.43567 9.37832 5.43567C8.6938 5.43567 8.1411 4.88978 8.1411 4.21925C8.1411 3.54873 8.69633 3.00284 9.37832 3.00284ZM5.05313 3.00284C5.73766 3.00284 6.29035 3.54873 6.29035 4.21925C6.29035 4.89227 5.73512 5.43567 5.05313 5.43567C4.3686 5.43567 3.81591 4.88978 3.81591 4.21925C3.81591 3.54873 4.3686 3.00284 5.05313 3.00284Z" fill="#2F4858"/>
<path d="M25.2467 9.25195H7.4585C6.35393 9.25195 5.4585 10.1474 5.4585 11.252V15.6396C5.4585 16.7442 6.35393 17.6396 7.4585 17.6396H25.2467C26.3513 17.6396 27.2467 16.7442 27.2467 15.6396V11.252C27.2467 10.1474 26.3513 9.25195 25.2467 9.25195Z" fill="#FFA300"/>
<path d="M9.80558 14.1641L8.30322 14.2566C8.34663 14.7639 8.53714 15.1812 8.87234 15.5084C9.20753 15.8379 9.81041 16.0039 10.681 16.0039C11.1777 16.0039 11.5877 15.9328 11.9132 15.7929C12.2412 15.6506 12.492 15.4444 12.6753 15.1717C12.8561 14.8991 12.9478 14.6003 12.9478 14.2779C12.9478 14.0029 12.8778 13.7539 12.7428 13.5334C12.6077 13.3106 12.3883 13.1256 12.0893 12.9763C11.7902 12.8269 11.2959 12.6775 10.6038 12.5306C10.3241 12.4737 10.148 12.412 10.0757 12.3456C10.0009 12.2816 9.96233 12.2105 9.96233 12.1299C9.96233 12.0208 10.0081 11.926 10.1022 11.8501C10.1962 11.7742 10.3361 11.7363 10.5194 11.7363C10.7412 11.7363 10.9173 11.7885 11.0451 11.8928C11.1705 11.9947 11.2549 12.1631 11.2935 12.3907L12.7814 12.3029C12.7163 11.7814 12.5113 11.3996 12.1688 11.1602C11.8264 10.9183 11.3272 10.7998 10.6737 10.7998C10.1408 10.7998 9.72118 10.8662 9.41492 10.9966C9.10866 11.127 8.87957 11.3095 8.72765 11.5395C8.57572 11.7695 8.49855 12.0137 8.49855 12.2721C8.49855 12.6657 8.64565 12.9881 8.94468 13.2418C9.24129 13.4979 9.73324 13.7018 10.4277 13.8535C10.8498 13.946 11.1198 14.0408 11.2356 14.1451C11.3513 14.2494 11.4092 14.3656 11.4092 14.496C11.4092 14.6335 11.3489 14.7544 11.226 14.8588C11.1054 14.9631 10.9293 15.0152 10.7051 15.0152C10.4012 15.0152 10.1697 14.9133 10.0057 14.7094C9.90445 14.5861 9.83693 14.4036 9.80558 14.1641Z" fill="white"/>
<path d="M17.9878 10.8852H13.7532V15.9209H18.0674V14.7805H15.3424V13.7895H17.7949V12.7629H15.3424V11.9615H17.9878V10.8852Z" fill="white"/>
<path d="M19.4323 11.4897C18.9644 11.9449 18.7329 12.5851 18.7329 13.4078C18.7329 13.9958 18.8511 14.4865 19.085 14.8754C19.3213 15.2666 19.6276 15.5511 20.0062 15.7336C20.3848 15.9138 20.8647 16.0039 21.441 16.0039C22.0101 16.0039 22.4852 15.8996 22.8662 15.6909C23.2448 15.4799 23.5366 15.1883 23.7392 14.8113C23.9393 14.4344 24.0406 13.9531 24.0406 13.3651C24.0406 12.5566 23.8091 11.926 23.3485 11.4755C22.8879 11.0274 22.2296 10.8022 21.3783 10.8022C20.5464 10.8022 19.8977 11.0322 19.4323 11.4897Z" fill="white"/>
<path d="M20.6043 14.5063C20.4114 14.2834 20.3149 13.9181 20.3149 13.4105C20.3149 12.8982 20.4114 12.5306 20.6067 12.3076C20.7996 12.0871 21.0577 11.9756 21.376 11.9756C21.7112 11.9756 21.974 12.0847 22.1694 12.3029C22.3623 12.5211 22.4612 12.8674 22.4612 13.3418C22.4612 13.9063 22.3695 14.2952 22.1814 14.5134C21.9958 14.7293 21.7305 14.8384 21.3905 14.8384C21.0601 14.8384 20.7972 14.7269 20.6043 14.5063Z" fill="#FFA300"/>
</svg>
