<svg width="80" height="80" viewBox="0 0 80 80" fill="none" xmlns="http://www.w3.org/2000/svg">
<circle cx="40" cy="40" r="40" fill="#FFF8EE"/>
<path d="M35.3793 45.2911C38.3099 45.2911 41.0823 44.2924 43.3042 42.4662L44.4486 43.5914L44.0682 43.9654C43.8684 44.1618 43.7568 44.4272 43.7568 44.704C43.7568 44.9809 43.8684 45.2473 44.0682 45.4426L52.8421 54.0679C53.0493 54.2716 53.3213 54.374 53.5933 54.374C53.8653 54.374 54.1374 54.2716 54.3446 54.0679L56.6908 51.7612C56.8906 51.5647 57.0021 51.2994 57.0021 51.0225C57.0021 50.7457 56.8906 50.4793 56.6908 50.2839L47.9169 41.6586C47.5014 41.2501 46.8299 41.2501 46.4144 41.6586L45.9511 42.1141L44.8109 40.9931C46.7162 38.795 47.7618 36.038 47.7618 33.119C47.7618 29.8678 46.4739 26.8109 44.1351 24.5115C41.7963 22.212 38.6872 20.9458 35.3804 20.9458C32.0735 20.9458 28.9644 22.212 26.6267 24.5115C24.2879 26.8109 23 29.8667 23 33.119C23 36.3702 24.2879 39.4271 26.6267 41.7255C28.9633 44.026 32.0725 45.2911 35.3793 45.2911ZM54.436 51.0236L53.5923 51.852L46.3209 44.704L47.1646 43.8755L54.436 51.0236ZM28.1281 25.9898C30.0652 24.0852 32.6399 23.0363 35.3793 23.0363C38.1187 23.0363 40.6944 24.0852 42.6315 25.9898C44.5687 27.8943 45.6355 30.4267 45.6355 33.12C45.6355 35.8134 44.5687 38.3447 42.6315 40.2493C40.6944 42.1538 38.1187 43.2027 35.3793 43.2027C32.6399 43.2027 30.0652 42.1538 28.1281 40.2493C26.191 38.3447 25.1241 35.8123 25.1241 33.12C25.1241 30.4257 26.1899 27.8943 28.1281 25.9898Z" fill="#F48100" stroke="#F48100" stroke-width="1.4"/>
</svg>
