<svg width="37" height="31" viewBox="0 0 37 31" fill="none" xmlns="http://www.w3.org/2000/svg">
<path d="M1.65625 9.93555H35.5693" stroke="#2F4858" stroke-width="2.4" stroke-miterlimit="10" stroke-linecap="round" stroke-linejoin="round"/>
<path d="M8.65625 23.7002H18.6562" stroke="#2F4858" stroke-width="3" stroke-miterlimit="10" stroke-linecap="round" stroke-linejoin="round"/>
<path d="M9.22148 29.4707H1.65625V1.25781H35.5693V29.4707H7.00001" stroke="#2F4858" stroke-width="2.4" stroke-miterlimit="10" stroke-linecap="round" stroke-linejoin="round"/>
<path d="M6.19971 7.32764C7.02813 7.32764 7.69971 6.66743 7.69971 5.85303C7.69971 5.03862 7.02813 4.37842 6.19971 4.37842C5.37128 4.37842 4.69971 5.03862 4.69971 5.85303C4.69971 6.66743 5.37128 7.32764 6.19971 7.32764Z" fill="#FFA300"/>
<path d="M10.1997 7.32764C11.0281 7.32764 11.6997 6.66743 11.6997 5.85303C11.6997 5.03862 11.0281 4.37842 10.1997 4.37842C9.37128 4.37842 8.69971 5.03862 8.69971 5.85303C8.69971 6.66743 9.37128 7.32764 10.1997 7.32764Z" fill="#FFA300"/>
<path d="M14.1997 7.32764C15.0281 7.32764 15.6997 6.66743 15.6997 5.85303C15.6997 5.03862 15.0281 4.37842 14.1997 4.37842C13.3713 4.37842 12.6997 5.03862 12.6997 5.85303C12.6997 6.66743 13.3713 7.32764 14.1997 7.32764Z" fill="#FFA300"/>
<path d="M8.41335 20.0676C8.21922 20.0676 8.05232 19.999 7.91264 19.8617C7.77296 19.722 7.70312 19.5539 7.70312 19.3574C7.70312 19.1633 7.77296 18.9976 7.91264 18.8603C8.05232 18.7206 8.21922 18.6507 8.41335 18.6507C8.60748 18.6507 8.77438 18.7206 8.91406 18.8603C9.05374 18.9976 9.12358 19.1633 9.12358 19.3574C9.12358 19.4876 9.09044 19.6072 9.02415 19.7161C8.96023 19.8226 8.875 19.9078 8.76847 19.9718C8.66193 20.0357 8.54356 20.0676 8.41335 20.0676Z" fill="#FFA300"/>
<path d="M12.8434 20.1103C12.3155 20.1103 11.8609 19.9907 11.4798 19.7516C11.101 19.5101 10.8098 19.1775 10.6062 18.7537C10.4026 18.33 10.3008 17.8446 10.3008 17.2978C10.3008 16.7438 10.4049 16.2549 10.6133 15.8311C10.8216 15.405 11.1152 15.0724 11.494 14.8333C11.8728 14.5942 12.319 14.4746 12.8327 14.4746C13.247 14.4746 13.6164 14.5516 13.9407 14.7054C14.265 14.8569 14.5266 15.07 14.7255 15.3446C14.9267 15.6193 15.0463 15.94 15.0842 16.307H14.0508C13.994 16.0513 13.8638 15.8311 13.6602 15.6465C13.4589 15.4618 13.189 15.3695 12.8505 15.3695C12.5546 15.3695 12.2953 15.4476 12.0728 15.6039C11.8526 15.7578 11.681 15.9779 11.5579 16.2644C11.4348 16.5485 11.3732 16.8846 11.3732 17.2729C11.3732 17.6706 11.4336 18.0139 11.5543 18.3027C11.6751 18.5916 11.8455 18.8153 12.0657 18.9739C12.2882 19.1325 12.5498 19.2118 12.8505 19.2118C13.0517 19.2118 13.234 19.1751 13.3974 19.1017C13.5631 19.026 13.7016 18.9183 13.8129 18.7786C13.9265 18.6389 14.0058 18.4708 14.0508 18.2743H15.0842C15.0463 18.6271 14.9315 18.9419 14.7397 19.2189C14.5479 19.4959 14.2911 19.7137 13.9691 19.8723C13.6495 20.031 13.2743 20.1103 12.8434 20.1103Z" fill="#FFA300"/>
<path d="M18.5172 20.1103C18.0059 20.1103 17.5596 19.9931 17.1784 19.7587C16.7973 19.5243 16.5014 19.1964 16.2907 18.775C16.08 18.3536 15.9746 17.8612 15.9746 17.2978C15.9746 16.7319 16.08 16.2372 16.2907 15.8134C16.5014 15.3896 16.7973 15.0605 17.1784 14.8262C17.5596 14.5918 18.0059 14.4746 18.5172 14.4746C19.0286 14.4746 19.4748 14.5918 19.856 14.8262C20.2372 15.0605 20.5331 15.3896 20.7438 15.8134C20.9545 16.2372 21.0598 16.7319 21.0598 17.2978C21.0598 17.8612 20.9545 18.3536 20.7438 18.775C20.5331 19.1964 20.2372 19.5243 19.856 19.7587C19.4748 19.9931 19.0286 20.1103 18.5172 20.1103ZM18.5208 19.2189C18.8522 19.2189 19.1268 19.1313 19.3446 18.9561C19.5624 18.781 19.7234 18.5478 19.8276 18.2566C19.9341 17.9654 19.9874 17.6446 19.9874 17.2942C19.9874 16.9462 19.9341 16.6266 19.8276 16.3354C19.7234 16.0418 19.5624 15.8063 19.3446 15.6287C19.1268 15.4512 18.8522 15.3624 18.5208 15.3624C18.187 15.3624 17.91 15.4512 17.6898 15.6287C17.472 15.8063 17.3098 16.0418 17.2033 16.3354C17.0991 16.6266 17.0471 16.9462 17.0471 17.2942C17.0471 17.6446 17.0991 17.9654 17.2033 18.2566C17.3098 18.5478 17.472 18.781 17.6898 18.9561C17.91 19.1313 18.187 19.2189 18.5208 19.2189Z" fill="#FFA300"/>
<path d="M22.245 20.0002V14.5456H23.2642V15.4334H23.3317C23.4453 15.1328 23.6312 14.8984 23.8892 14.7303C24.1473 14.5598 24.4562 14.4746 24.8161 14.4746C25.1806 14.4746 25.486 14.5598 25.7322 14.7303C25.9808 14.9007 26.1643 15.1351 26.2827 15.4334H26.3395C26.4697 15.1422 26.6768 14.9102 26.9609 14.7374C27.245 14.5622 27.5836 14.4746 27.9766 14.4746C28.4714 14.4746 28.875 14.6297 29.1875 14.9398C29.5024 15.2499 29.6598 15.7175 29.6598 16.3425V20.0002H28.598V16.4419C28.598 16.0726 28.4974 15.8051 28.2962 15.6394C28.0949 15.4737 27.8546 15.3908 27.5753 15.3908C27.2296 15.3908 26.9609 15.4973 26.7692 15.7104C26.5774 15.9211 26.4815 16.1922 26.4815 16.5236V20.0002H25.4233V16.3745C25.4233 16.0785 25.331 15.8406 25.1463 15.6607C24.9616 15.4808 24.7214 15.3908 24.4254 15.3908C24.2242 15.3908 24.0384 15.4441 23.8679 15.5506C23.6998 15.6548 23.5637 15.8004 23.4595 15.9874C23.3577 16.1744 23.3068 16.391 23.3068 16.6373V20.0002H22.245Z" fill="#FFA300"/>
</svg>
