<svg width="36" height="30" viewBox="0 0 36 30" fill="none" xmlns="http://www.w3.org/2000/svg">
<path fill-rule="evenodd" clip-rule="evenodd" d="M0.456055 9.5542C0.456055 8.9256 0.974383 8.41602 1.61377 8.41602H34.3319C34.9713 8.41602 35.4896 8.9256 35.4896 9.5542C35.4896 10.1828 34.9713 10.6924 34.3319 10.6924H1.61377C0.974383 10.6924 0.456055 10.1828 0.456055 9.5542Z" fill="#2F4858"/>
<path fill-rule="evenodd" clip-rule="evenodd" d="M6.24463 16.1941C6.24463 15.0414 7.1949 14.1069 8.36711 14.1069H27.6624C28.8346 14.1069 29.7849 15.0414 29.7849 16.1941C29.7849 17.3468 28.8346 18.2812 27.6624 18.2812H8.36711C7.1949 18.2812 6.24463 17.3468 6.24463 16.1941Z" fill="#FFA300"/>
<path fill-rule="evenodd" clip-rule="evenodd" d="M6.91992 22.834C6.91992 22.0482 7.56783 21.4111 8.36707 21.4111H18.0147C18.8139 21.4111 19.4619 22.0482 19.4619 22.834C19.4619 23.6198 18.8139 24.2568 18.0147 24.2568H8.36707C7.56783 24.2568 6.91992 23.6198 6.91992 22.834Z" fill="#2F4858"/>
<path fill-rule="evenodd" clip-rule="evenodd" d="M0.456055 1.1822C0.456055 0.553559 0.974383 0.0439453 1.61377 0.0439453H34.3319C34.9713 0.0439453 35.4896 0.553559 35.4896 1.1822V28.4013C35.4896 29.0299 34.9713 29.5396 34.3319 29.5396H1.61377C0.974383 29.5396 0.456055 29.0299 0.456055 28.4013V1.1822ZM33.1742 27.263V2.32045H2.77149V27.263H33.1742Z" fill="#2F4858"/>
<path d="M5.99744 7.03857C6.79667 7.03857 7.44458 6.40154 7.44458 5.61572C7.44458 4.8299 6.79667 4.19287 5.99744 4.19287C5.1982 4.19287 4.55029 4.8299 4.55029 5.61572C4.55029 6.40154 5.1982 7.03857 5.99744 7.03857Z" fill="#FFA300"/>
<path d="M9.85632 7.03857C10.6556 7.03857 11.3035 6.40154 11.3035 5.61572C11.3035 4.8299 10.6556 4.19287 9.85632 4.19287C9.05709 4.19287 8.40918 4.8299 8.40918 5.61572C8.40918 6.40154 9.05709 7.03857 9.85632 7.03857Z" fill="#FFA300"/>
<path d="M13.7157 7.03857C14.5149 7.03857 15.1628 6.40154 15.1628 5.61572C15.1628 4.8299 14.5149 4.19287 13.7157 4.19287C12.9165 4.19287 12.2686 4.8299 12.2686 5.61572C12.2686 6.40154 12.9165 7.03857 13.7157 7.03857Z" fill="#FFA300"/>
</svg>
