<svg width="14" height="14" viewBox="0 0 14 14" fill="none" xmlns="http://www.w3.org/2000/svg">
<path d="M7.00175 0H6.99825C3.13863 0 0 3.1395 0 7C0 8.53125 0.4935 9.9505 1.33263 11.1029L0.46025 13.7034L3.15088 12.8433C4.25775 13.5765 5.57812 14 7.00175 14C10.8614 14 14 10.8596 14 7C14 3.14038 10.8614 0 7.00175 0Z" fill="#4CAF50"/>
<path d="M11.075 9.8849C10.9061 10.3618 10.2358 10.7573 9.70122 10.8728C9.33547 10.9506 8.85772 11.0128 7.24948 10.346C5.19235 9.49377 3.8676 7.4034 3.76435 7.26778C3.66548 7.13215 2.93311 6.1609 2.93311 5.15641C2.93311 4.15191 3.44323 3.66278 3.64885 3.45278C3.81773 3.28041 4.09685 3.20166 4.3646 3.20166C4.45123 3.20166 4.5291 3.20604 4.5991 3.20954C4.80473 3.21829 4.90798 3.23054 5.0436 3.55516C5.21248 3.96203 5.62373 4.96653 5.67273 5.06978C5.7226 5.17303 5.77248 5.31303 5.70248 5.44866C5.63685 5.58866 5.5791 5.65078 5.47585 5.76978C5.3726 5.88878 5.2746 5.97978 5.17135 6.10753C5.07685 6.21865 4.9701 6.33765 5.0891 6.54328C5.2081 6.74453 5.61935 7.41565 6.22485 7.95465C7.00623 8.65027 7.63973 8.87252 7.86635 8.96702C8.03523 9.03702 8.23647 9.0204 8.35985 8.88915C8.51647 8.72027 8.70985 8.44028 8.90672 8.16465C9.04672 7.9669 9.22347 7.9424 9.40897 8.0124C9.59797 8.07803 10.5981 8.5724 10.8037 8.67477C11.0093 8.77802 11.145 8.82702 11.1948 8.91365C11.2438 9.00027 11.2438 9.40715 11.075 9.8849Z" fill="#FAFAFA"/>
</svg>
